<svg width="270" height="270" viewBox="0 0 270 270" fill="none" xmlns="http://www.w3.org/2000/svg">
<g clip-path="url(#clip0_211_1366)">
<rect width="270" height="270" rx="26" fill="#252525"/>
<rect x="148" y="187" width="105" height="60" rx="13" fill="#F9C22E"/>
<path d="M189.371 222V208.182H194.04C195.124 208.182 196.01 208.377 196.699 208.769C197.391 209.156 197.904 209.68 198.237 210.341C198.57 211.002 198.736 211.74 198.736 212.554C198.736 213.368 198.57 214.108 198.237 214.774C197.908 215.44 197.4 215.97 196.712 216.366C196.024 216.757 195.142 216.953 194.067 216.953H190.721V215.469H194.013C194.755 215.469 195.351 215.341 195.801 215.084C196.251 214.828 196.577 214.481 196.779 214.045C196.986 213.604 197.09 213.107 197.09 212.554C197.09 212.001 196.986 211.506 196.779 211.07C196.577 210.633 196.249 210.291 195.794 210.044C195.34 209.792 194.737 209.666 193.986 209.666H191.044V222H189.371ZM202.808 215.766V222H201.216V208.182H202.808V213.256H202.943C203.186 212.72 203.55 212.295 204.036 211.98C204.526 211.661 205.179 211.501 205.993 211.501C206.699 211.501 207.317 211.643 207.848 211.926C208.379 212.205 208.791 212.635 209.083 213.215C209.38 213.791 209.528 214.524 209.528 215.415V222H207.936V215.523C207.936 214.7 207.722 214.063 207.295 213.613C206.872 213.159 206.285 212.932 205.534 212.932C205.012 212.932 204.544 213.042 204.131 213.262C203.721 213.483 203.397 213.804 203.159 214.227C202.925 214.65 202.808 215.163 202.808 215.766ZM216.652 222.216C215.716 222.216 214.895 221.993 214.189 221.548C213.487 221.103 212.938 220.48 212.543 219.679C212.151 218.878 211.956 217.943 211.956 216.872C211.956 215.793 212.151 214.85 212.543 214.045C212.938 213.24 213.487 212.615 214.189 212.169C214.895 211.724 215.716 211.501 216.652 211.501C217.587 211.501 218.406 211.724 219.108 212.169C219.814 212.615 220.362 213.24 220.754 214.045C221.15 214.85 221.348 215.793 221.348 216.872C221.348 217.943 221.15 218.878 220.754 219.679C220.362 220.48 219.814 221.103 219.108 221.548C218.406 221.993 217.587 222.216 216.652 222.216ZM216.652 220.786C217.362 220.786 217.947 220.603 218.406 220.239C218.865 219.875 219.204 219.396 219.425 218.802C219.645 218.208 219.755 217.565 219.755 216.872C219.755 216.179 219.645 215.534 219.425 214.936C219.204 214.337 218.865 213.854 218.406 213.485C217.947 213.116 217.362 212.932 216.652 212.932C215.941 212.932 215.356 213.116 214.897 213.485C214.438 213.854 214.099 214.337 213.878 214.936C213.658 215.534 213.548 216.179 213.548 216.872C213.548 217.565 213.658 218.208 213.878 218.802C214.099 219.396 214.438 219.875 214.897 220.239C215.356 220.603 215.941 220.786 216.652 220.786ZM225.371 215.766V222H223.778V211.636H225.317V213.256H225.452C225.694 212.729 226.063 212.307 226.558 211.987C227.053 211.663 227.692 211.501 228.474 211.501C229.176 211.501 229.79 211.645 230.316 211.933C230.843 212.217 231.252 212.648 231.544 213.229C231.837 213.804 231.983 214.533 231.983 215.415V222H230.39V215.523C230.39 214.709 230.179 214.074 229.756 213.62C229.333 213.161 228.753 212.932 228.015 212.932C227.507 212.932 227.053 213.042 226.653 213.262C226.257 213.483 225.944 213.804 225.715 214.227C225.485 214.65 225.371 215.163 225.371 215.766ZM239.238 222.216C238.239 222.216 237.378 221.996 236.653 221.555C235.934 221.109 235.378 220.489 234.987 219.692C234.6 218.892 234.407 217.961 234.407 216.899C234.407 215.838 234.6 214.902 234.987 214.092C235.378 213.278 235.923 212.644 236.62 212.19C237.321 211.731 238.14 211.501 239.076 211.501C239.615 211.501 240.149 211.591 240.675 211.771C241.201 211.951 241.68 212.244 242.112 212.648C242.544 213.049 242.888 213.58 243.144 214.241C243.401 214.902 243.529 215.716 243.529 216.683V217.358H235.54V215.982H241.91C241.91 215.397 241.793 214.875 241.559 214.416C241.329 213.957 241.001 213.595 240.574 213.33C240.151 213.065 239.651 212.932 239.076 212.932C238.441 212.932 237.893 213.089 237.429 213.404C236.971 213.714 236.618 214.119 236.37 214.619C236.123 215.118 235.999 215.653 235.999 216.224V217.142C235.999 217.925 236.134 218.588 236.404 219.132C236.678 219.672 237.058 220.084 237.544 220.367C238.03 220.646 238.594 220.786 239.238 220.786C239.656 220.786 240.034 220.727 240.371 220.61C240.713 220.489 241.008 220.309 241.255 220.07C241.502 219.827 241.694 219.526 241.829 219.166L243.367 219.598C243.205 220.12 242.933 220.579 242.551 220.974C242.168 221.366 241.696 221.672 241.134 221.892C240.571 222.108 239.939 222.216 239.238 222.216Z" fill="white"/>
<path d="M176.98 229C171.683 228.993 166.605 226.963 162.86 223.354C159.114 219.746 157.007 214.853 157 209.75C157 208.225 157.629 206.763 158.748 205.684C159.867 204.606 161.385 204 162.968 204C163.303 203.998 163.638 204.027 163.967 204.088C164.285 204.133 164.598 204.208 164.901 204.313C165.114 204.385 165.304 204.509 165.452 204.673C165.6 204.838 165.701 205.037 165.745 205.25L167.522 212.75C167.57 212.954 167.564 213.165 167.505 213.366C167.446 213.567 167.336 213.751 167.185 213.9C167.016 214.075 167.003 214.087 165.407 214.887C166.685 217.589 168.927 219.758 171.726 221C172.569 219.45 172.582 219.437 172.763 219.275C172.918 219.129 173.109 219.023 173.317 218.966C173.526 218.909 173.746 218.904 173.957 218.95L181.742 220.662C181.956 220.71 182.154 220.81 182.318 220.952C182.481 221.094 182.604 221.274 182.676 221.475C182.785 221.772 182.868 222.077 182.922 222.387C182.974 222.702 183 223.019 183 223.337C182.976 224.856 182.33 226.303 181.202 227.364C180.074 228.425 178.556 229.013 176.98 229Z" fill="white"/>
<rect x="23" y="187" width="105" height="60" rx="13" fill="#B084CC"/>
<path d="M63.3744 223H61.6201L66.694 209.182H68.4213L73.4951 223H71.7409L67.6116 211.368H67.5036L63.3744 223ZM64.0221 217.602H71.0931V219.087H64.0221V217.602ZM75.4315 226.886V212.636H76.9699V214.283H77.1588C77.2758 214.103 77.4377 213.873 77.6446 213.594C77.856 213.311 78.1574 213.059 78.5487 212.839C78.9446 212.614 79.4798 212.501 80.1546 212.501C81.0272 212.501 81.7964 212.72 82.4621 213.156C83.1278 213.592 83.6473 214.211 84.0207 215.011C84.394 215.812 84.5807 216.757 84.5807 217.845C84.5807 218.943 84.394 219.894 84.0207 220.699C83.6473 221.5 83.1301 222.121 82.4688 222.561C81.8076 222.998 81.0452 223.216 80.1815 223.216C79.5158 223.216 78.9828 223.106 78.5825 222.885C78.1821 222.66 77.874 222.406 77.6581 222.123C77.4422 221.835 77.2758 221.597 77.1588 221.408H77.0239V226.886H75.4315ZM76.9969 217.818C76.9969 218.601 77.1116 219.291 77.341 219.89C77.5704 220.483 77.9055 220.949 78.3463 221.286C78.7871 221.619 79.3269 221.786 79.9656 221.786C80.6314 221.786 81.1869 221.61 81.6322 221.259C82.082 220.904 82.4194 220.427 82.6443 219.829C82.8737 219.226 82.9884 218.556 82.9884 217.818C82.9884 217.089 82.8759 216.433 82.651 215.848C82.4306 215.259 82.0955 214.793 81.6457 214.451C81.2004 214.105 80.6404 213.932 79.9656 213.932C79.3179 213.932 78.7736 214.096 78.3328 214.424C77.892 214.748 77.5592 215.203 77.3342 215.787C77.1093 216.368 76.9969 217.045 76.9969 217.818ZM87.0097 226.886V212.636H88.548V214.283H88.7369C88.8539 214.103 89.0158 213.873 89.2227 213.594C89.4342 213.311 89.7355 213.059 90.1269 212.839C90.5227 212.614 91.058 212.501 91.7327 212.501C92.6053 212.501 93.3745 212.72 94.0402 213.156C94.7059 213.592 95.2255 214.211 95.5988 215.011C95.9722 215.812 96.1588 216.757 96.1588 217.845C96.1588 218.943 95.9722 219.894 95.5988 220.699C95.2255 221.5 94.7082 222.121 94.047 222.561C93.3857 222.998 92.6233 223.216 91.7597 223.216C91.094 223.216 90.5609 223.106 90.1606 222.885C89.7603 222.66 89.4521 222.406 89.2362 222.123C89.0203 221.835 88.8539 221.597 88.7369 221.408H88.602V226.886H87.0097ZM88.575 217.818C88.575 218.601 88.6897 219.291 88.9191 219.89C89.1485 220.483 89.4836 220.949 89.9244 221.286C90.3653 221.619 90.905 221.786 91.5438 221.786C92.2095 221.786 92.765 221.61 93.2103 221.259C93.6601 220.904 93.9975 220.427 94.2224 219.829C94.4518 219.226 94.5665 218.556 94.5665 217.818C94.5665 217.089 94.454 216.433 94.2291 215.848C94.0087 215.259 93.6736 214.793 93.2238 214.451C92.7785 214.105 92.2185 213.932 91.5438 213.932C90.896 213.932 90.3518 214.096 89.911 214.424C89.4701 214.748 89.1373 215.203 88.9124 215.787C88.6875 216.368 88.575 217.045 88.575 217.818ZM105.929 214.957L104.498 215.362C104.408 215.124 104.276 214.892 104.1 214.667C103.929 214.438 103.695 214.249 103.399 214.1C103.102 213.952 102.722 213.878 102.258 213.878C101.624 213.878 101.095 214.024 100.673 214.316C100.254 214.604 100.045 214.971 100.045 215.416C100.045 215.812 100.189 216.125 100.477 216.354C100.765 216.583 101.215 216.775 101.826 216.928L103.365 217.305C104.291 217.53 104.982 217.874 105.436 218.338C105.89 218.797 106.118 219.388 106.118 220.112C106.118 220.706 105.947 221.237 105.605 221.705C105.267 222.172 104.795 222.541 104.188 222.811C103.581 223.081 102.874 223.216 102.069 223.216C101.012 223.216 100.137 222.987 99.4447 222.528C98.752 222.069 98.3134 221.399 98.129 220.517L99.6404 220.139C99.7843 220.697 100.056 221.115 100.457 221.394C100.862 221.673 101.39 221.812 102.042 221.812C102.785 221.812 103.374 221.655 103.81 221.34C104.251 221.021 104.471 220.638 104.471 220.193C104.471 219.833 104.345 219.532 104.093 219.289C103.842 219.042 103.455 218.857 102.933 218.736L101.206 218.331C100.257 218.106 99.5594 217.757 99.1141 217.285C98.6733 216.808 98.4529 216.212 98.4529 215.497C98.4529 214.912 98.617 214.395 98.9454 213.945C99.2783 213.496 99.7303 213.142 100.302 212.886C100.877 212.63 101.53 212.501 102.258 212.501C103.284 212.501 104.089 212.726 104.674 213.176C105.263 213.626 105.681 214.22 105.929 214.957Z" fill="white"/>
<path d="M73.3476 55.6364V100H67.9755V61.2685H67.7155L56.8846 68.4602V63.0014L67.9755 55.6364H73.3476ZM88.6228 100V96.1009L103.266 80.071C104.985 78.1937 106.4 76.5618 107.512 75.1754C108.624 73.7746 109.447 72.4605 109.981 71.233C110.53 69.991 110.805 68.6913 110.805 67.3338C110.805 65.7741 110.429 64.4239 109.678 63.283C108.942 62.1422 107.931 61.2612 106.646 60.6403C105.36 60.0193 103.916 59.7088 102.313 59.7088C100.609 59.7088 99.1216 60.0626 97.8508 60.7702C96.5944 61.4634 95.6196 62.4382 94.9264 63.6946C94.2477 64.951 93.9083 66.424 93.9083 68.1136H88.7961C88.7961 65.5142 89.3954 63.2325 90.594 61.2685C91.7926 59.3044 93.4245 57.7737 95.4896 56.6761C97.5692 55.5786 99.9014 55.0298 102.486 55.0298C105.086 55.0298 107.389 55.5786 109.397 56.6761C111.404 57.7737 112.978 59.2539 114.119 61.1168C115.26 62.9798 115.83 65.0521 115.83 67.3338C115.83 68.9657 115.534 70.5614 114.942 72.1211C114.364 73.6663 113.353 75.392 111.909 77.2983C110.48 79.1901 108.494 81.5007 105.952 84.2301L95.9878 94.8878V95.2344H116.61V100H88.6228ZM129.369 94.3246C128.3 94.3246 127.383 93.9419 126.618 93.1765C125.852 92.4111 125.47 91.4941 125.47 90.4254C125.47 89.3568 125.852 88.4397 126.618 87.6744C127.383 86.909 128.3 86.5263 129.369 86.5263C130.438 86.5263 131.355 86.909 132.12 87.6744C132.885 88.4397 133.268 89.3568 133.268 90.4254C133.268 91.133 133.088 91.7829 132.726 92.375C132.38 92.9671 131.911 93.4437 131.318 93.8047C130.741 94.1513 130.091 94.3246 129.369 94.3246ZM129.369 71.8828C128.3 71.8828 127.383 71.5001 126.618 70.7347C125.852 69.9693 125.47 69.0523 125.47 67.9837C125.47 66.915 125.852 65.998 126.618 65.2326C127.383 64.4672 128.3 64.0845 129.369 64.0845C130.438 64.0845 131.355 64.4672 132.12 65.2326C132.885 65.998 133.268 66.915 133.268 67.9837C133.268 68.6913 133.088 69.3411 132.726 69.9332C132.38 70.5253 131.911 71.0019 131.318 71.3629C130.741 71.7095 130.091 71.8828 129.369 71.8828ZM144.871 100V96.1009L159.515 80.071C161.233 78.1937 162.649 76.5618 163.761 75.1754C164.873 73.7746 165.696 72.4605 166.23 71.233C166.779 69.991 167.053 68.6913 167.053 67.3338C167.053 65.7741 166.678 64.4239 165.927 63.283C165.19 62.1422 164.179 61.2612 162.894 60.6403C161.609 60.0193 160.165 59.7088 158.562 59.7088C156.858 59.7088 155.37 60.0626 154.099 60.7702C152.843 61.4634 151.868 62.4382 151.175 63.6946C150.496 64.951 150.157 66.424 150.157 68.1136H145.045C145.045 65.5142 145.644 63.2325 146.843 61.2685C148.041 59.3044 149.673 57.7737 151.738 56.6761C153.818 55.5786 156.15 55.0298 158.735 55.0298C161.335 55.0298 163.638 55.5786 165.645 56.6761C167.653 57.7737 169.227 59.2539 170.368 61.1168C171.508 62.9798 172.079 65.0521 172.079 67.3338C172.079 68.9657 171.783 70.5614 171.191 72.1211C170.613 73.6663 169.602 75.392 168.158 77.2983C166.728 79.1901 164.743 81.5007 162.201 84.2301L152.237 94.8878V95.2344H172.859V100H144.871ZM198.185 100.607C195.643 100.607 193.354 100.101 191.318 99.0902C189.282 98.0793 187.65 96.6929 186.423 94.9311C185.195 93.1693 184.523 91.1619 184.408 88.9091H189.607C189.809 90.9164 190.719 92.5772 192.336 93.8913C193.968 95.1911 195.918 95.8409 198.185 95.8409C200.005 95.8409 201.622 95.4149 203.037 94.5629C204.467 93.7108 205.586 92.5411 206.395 91.0536C207.218 89.5517 207.63 87.8549 207.63 85.9631C207.63 84.0279 207.204 82.3022 206.351 80.7859C205.514 79.2551 204.359 78.0492 202.886 77.1683C201.413 76.2874 199.73 75.8397 197.838 75.8253C196.481 75.8108 195.087 76.0202 193.658 76.4535C192.228 76.8723 191.051 77.4138 190.127 78.0781L185.101 77.4716L187.787 55.6364H210.836V60.402H192.293L190.733 73.4858H190.993C191.903 72.7637 193.044 72.1644 194.416 71.6879C195.788 71.2113 197.217 70.973 198.705 70.973C201.42 70.973 203.839 71.6229 205.962 72.9226C208.099 74.2079 209.774 75.9697 210.987 78.2081C212.215 80.4465 212.828 83.0026 212.828 85.8764C212.828 88.7069 212.193 91.2341 210.922 93.4581C209.666 95.6676 207.933 97.415 205.723 98.7003C203.514 99.9711 201.001 100.607 198.185 100.607Z" fill="white"/>
<path d="M154.69 15.9091V29H153.105V17.571H153.028L149.832 19.6932V18.0824L153.105 15.9091H154.69ZM158.455 29V27.8494L162.776 23.1193C163.283 22.5653 163.7 22.0838 164.029 21.6747C164.357 21.2614 164.6 20.8736 164.757 20.5114C164.919 20.1449 165 19.7614 165 19.3608C165 18.9006 164.889 18.5021 164.668 18.1655C164.45 17.8288 164.152 17.5689 163.773 17.3857C163.394 17.2024 162.968 17.1108 162.494 17.1108C161.992 17.1108 161.553 17.2152 161.178 17.424C160.807 17.6286 160.519 17.9162 160.315 18.2869C160.115 18.6577 160.014 19.0923 160.014 19.5909H158.506C158.506 18.8239 158.683 18.1506 159.036 17.571C159.39 16.9915 159.872 16.5398 160.481 16.2159C161.095 15.892 161.783 15.7301 162.546 15.7301C163.313 15.7301 163.992 15.892 164.585 16.2159C165.177 16.5398 165.642 16.9766 165.978 17.5263C166.315 18.076 166.483 18.6875 166.483 19.3608C166.483 19.8423 166.396 20.3132 166.221 20.7734C166.051 21.2294 165.752 21.7386 165.326 22.3011C164.904 22.8594 164.318 23.5412 163.568 24.3466L160.628 27.4915V27.5938H166.713V29H158.455ZM175.183 29H173.521L178.328 15.9091H179.964L184.771 29H183.109L179.197 17.9801H179.095L175.183 29ZM175.796 23.8864H182.495V25.2926H175.796V23.8864ZM186.605 32.6818V19.1818H188.063V20.7415H188.242C188.352 20.571 188.506 20.3537 188.702 20.0895C188.902 19.821 189.188 19.5824 189.558 19.3736C189.933 19.1605 190.441 19.054 191.08 19.054C191.906 19.054 192.635 19.2607 193.266 19.674C193.896 20.0874 194.389 20.6733 194.742 21.4318C195.096 22.1903 195.273 23.0852 195.273 24.1165C195.273 25.1562 195.096 26.0575 194.742 26.8203C194.389 27.5788 193.899 28.1669 193.272 28.5845C192.646 28.9979 191.923 29.2045 191.105 29.2045C190.475 29.2045 189.97 29.1001 189.59 28.8913C189.211 28.6783 188.919 28.4375 188.715 28.169C188.51 27.8963 188.352 27.6705 188.242 27.4915H188.114V32.6818H186.605ZM188.088 24.0909C188.088 24.8324 188.197 25.4865 188.414 26.0533C188.632 26.6158 188.949 27.0568 189.367 27.3764C189.784 27.6918 190.296 27.8494 190.901 27.8494C191.531 27.8494 192.058 27.6832 192.48 27.3509C192.906 27.0142 193.225 26.5625 193.438 25.9957C193.656 25.4247 193.764 24.7898 193.764 24.0909C193.764 23.4006 193.658 22.7784 193.445 22.2244C193.236 21.6662 192.919 21.2251 192.492 20.9013C192.07 20.5732 191.54 20.4091 190.901 20.4091C190.287 20.4091 189.771 20.5646 189.354 20.8757C188.936 21.1825 188.621 21.6129 188.408 22.1669C188.195 22.7166 188.088 23.358 188.088 24.0909ZM197.574 29V19.1818H199.031V20.6648H199.134C199.313 20.179 199.637 19.7848 200.105 19.4822C200.574 19.1797 201.102 19.0284 201.691 19.0284C201.801 19.0284 201.94 19.0305 202.106 19.0348C202.272 19.0391 202.398 19.0455 202.483 19.054V20.5881C202.432 20.5753 202.315 20.5561 202.132 20.5305C201.953 20.5007 201.763 20.4858 201.563 20.4858C201.085 20.4858 200.659 20.5859 200.284 20.7862C199.914 20.9822 199.619 21.255 199.402 21.6044C199.189 21.9496 199.083 22.3437 199.083 22.7869V29H197.574ZM209.308 29V27.8494L213.629 23.1193C214.136 22.5653 214.554 22.0838 214.882 21.6747C215.21 21.2614 215.453 20.8736 215.611 20.5114C215.773 20.1449 215.854 19.7614 215.854 19.3608C215.854 18.9006 215.743 18.5021 215.521 18.1655C215.304 17.8288 215.006 17.5689 214.626 17.3857C214.247 17.2024 213.821 17.1108 213.348 17.1108C212.845 17.1108 212.406 17.2152 212.031 17.424C211.661 17.6286 211.373 17.9162 211.168 18.2869C210.968 18.6577 210.868 19.0923 210.868 19.5909H209.359C209.359 18.8239 209.536 18.1506 209.89 17.571C210.244 16.9915 210.725 16.5398 211.335 16.2159C211.948 15.892 212.636 15.7301 213.399 15.7301C214.166 15.7301 214.846 15.892 215.438 16.2159C216.031 16.5398 216.495 16.9766 216.832 17.5263C217.168 18.076 217.337 18.6875 217.337 19.3608C217.337 19.8423 217.249 20.3132 217.075 20.7734C216.904 21.2294 216.606 21.7386 216.18 22.3011C215.758 22.8594 215.172 23.5412 214.422 24.3466L211.482 27.4915V27.5938H217.567V29H209.308ZM224.477 29.179C223.513 29.179 222.693 28.9169 222.016 28.3928C221.338 27.8643 220.82 27.0994 220.462 26.098C220.104 25.0923 219.925 23.8778 219.925 22.4545C219.925 21.0398 220.104 19.8317 220.462 18.8303C220.825 17.8246 221.344 17.0575 222.022 16.5291C222.704 15.9964 223.522 15.7301 224.477 15.7301C225.431 15.7301 226.247 15.9964 226.925 16.5291C227.607 17.0575 228.126 17.8246 228.484 18.8303C228.847 19.8317 229.028 21.0398 229.028 22.4545C229.028 23.8778 228.849 25.0923 228.491 26.098C228.133 27.0994 227.615 27.8643 226.938 28.3928C226.26 28.9169 225.44 29.179 224.477 29.179ZM224.477 27.7727C225.431 27.7727 226.173 27.3125 226.701 26.392C227.229 25.4716 227.494 24.1591 227.494 22.4545C227.494 21.321 227.372 20.3558 227.129 19.5589C226.891 18.7621 226.545 18.1548 226.094 17.7372C225.646 17.3196 225.107 17.1108 224.477 17.1108C223.531 17.1108 222.791 17.5774 222.259 18.5107C221.726 19.4396 221.46 20.7543 221.46 22.4545C221.46 23.5881 221.579 24.5511 221.817 25.3438C222.056 26.1364 222.399 26.7393 222.847 27.1527C223.298 27.5661 223.842 27.7727 224.477 27.7727ZM231.457 29V27.8494L235.778 23.1193C236.285 22.5653 236.702 22.0838 237.031 21.6747C237.359 21.2614 237.602 20.8736 237.759 20.5114C237.921 20.1449 238.002 19.7614 238.002 19.3608C238.002 18.9006 237.891 18.5021 237.67 18.1655C237.452 17.8288 237.154 17.5689 236.775 17.3857C236.396 17.2024 235.969 17.1108 235.496 17.1108C234.994 17.1108 234.555 17.2152 234.18 17.424C233.809 17.6286 233.521 17.9162 233.317 18.2869C233.116 18.6577 233.016 19.0923 233.016 19.5909H231.508C231.508 18.8239 231.685 18.1506 232.038 17.571C232.392 16.9915 232.874 16.5398 233.483 16.2159C234.097 15.892 234.785 15.7301 235.548 15.7301C236.315 15.7301 236.994 15.892 237.587 16.2159C238.179 16.5398 238.643 16.9766 238.98 17.5263C239.317 18.076 239.485 18.6875 239.485 19.3608C239.485 19.8423 239.398 20.3132 239.223 20.7734C239.053 21.2294 238.754 21.7386 238.328 22.3011C237.906 22.8594 237.32 23.5412 236.57 24.3466L233.63 27.4915V27.5938H239.715V29H231.457ZM241.767 26.3153V25.0114L247.52 15.9091H248.466V17.929H247.827L243.48 24.8068V24.9091H251.227V26.3153H241.767ZM247.929 29V25.919V25.3118V15.9091H249.438V29H247.929Z" fill="white"/>
<path d="M88.9446 133.5H87.4474C87.3589 133.069 87.2039 132.691 86.9826 132.365C86.7652 132.039 86.4996 131.765 86.1857 131.544C85.8758 131.319 85.5317 131.15 85.1534 131.037C84.7751 130.924 84.3806 130.868 83.9701 130.868C83.2215 130.868 82.5434 131.057 81.9357 131.435C81.332 131.814 80.851 132.371 80.4929 133.108C80.1387 133.844 79.9616 134.748 79.9616 135.818C79.9616 136.889 80.1387 137.792 80.4929 138.529C80.851 139.265 81.332 139.823 81.9357 140.201C82.5434 140.579 83.2215 140.768 83.9701 140.768C84.3806 140.768 84.7751 140.712 85.1534 140.599C85.5317 140.487 85.8758 140.32 86.1857 140.098C86.4996 139.873 86.7652 139.597 86.9826 139.271C87.2039 138.941 87.3589 138.563 87.4474 138.136H88.9446C88.8319 138.768 88.6266 139.334 88.3288 139.833C88.031 140.332 87.6607 140.756 87.218 141.107C86.7753 141.453 86.2782 141.716 85.7269 141.897C85.1795 142.078 84.5939 142.169 83.9701 142.169C82.9157 142.169 81.9779 141.911 81.1569 141.396C80.3359 140.881 79.6899 140.149 79.2191 139.199C78.7482 138.249 78.5127 137.122 78.5127 135.818C78.5127 134.514 78.7482 133.387 79.2191 132.438C79.6899 131.488 80.3359 130.755 81.1569 130.24C81.9779 129.725 82.9157 129.467 83.9701 129.467C84.5939 129.467 85.1795 129.558 85.7269 129.739C86.2782 129.92 86.7753 130.186 87.218 130.536C87.6607 130.882 88.031 131.305 88.3288 131.804C88.6266 132.299 88.8319 132.864 88.9446 133.5ZM94.9377 142.193C94.1006 142.193 93.3661 141.994 92.7342 141.596C92.1064 141.197 91.6154 140.64 91.2612 139.923C90.9111 139.207 90.736 138.37 90.736 137.412C90.736 136.446 90.9111 135.603 91.2612 134.882C91.6154 134.162 92.1064 133.603 92.7342 133.204C93.3661 132.806 94.1006 132.607 94.9377 132.607C95.7748 132.607 96.5073 132.806 97.1352 133.204C97.767 133.603 98.258 134.162 98.6082 134.882C98.9623 135.603 99.1394 136.446 99.1394 137.412C99.1394 138.37 98.9623 139.207 98.6082 139.923C98.258 140.64 97.767 141.197 97.1352 141.596C96.5073 141.994 95.7748 142.193 94.9377 142.193ZM94.9377 140.913C95.5736 140.913 96.0968 140.75 96.5073 140.424C96.9178 140.098 97.2217 139.67 97.4189 139.138C97.6161 138.607 97.7147 138.032 97.7147 137.412C97.7147 136.792 97.6161 136.215 97.4189 135.679C97.2217 135.144 96.9178 134.711 96.5073 134.381C96.0968 134.051 95.5736 133.886 94.9377 133.886C94.3018 133.886 93.7786 134.051 93.3681 134.381C92.9576 134.711 92.6537 135.144 92.4565 135.679C92.2593 136.215 92.1607 136.792 92.1607 137.412C92.1607 138.032 92.2593 138.607 92.4565 139.138C92.6537 139.67 92.9576 140.098 93.3681 140.424C93.7786 140.75 94.3018 140.913 94.9377 140.913ZM102.739 136.422V142H101.314V132.727H102.691V134.176H102.811C103.029 133.705 103.359 133.327 103.801 133.041C104.244 132.751 104.816 132.607 105.516 132.607C106.144 132.607 106.693 132.735 107.164 132.993C107.635 133.246 108.001 133.633 108.263 134.152C108.524 134.667 108.655 135.319 108.655 136.108V142H107.23V136.205C107.23 135.476 107.041 134.909 106.663 134.502C106.285 134.092 105.765 133.886 105.105 133.886C104.651 133.886 104.244 133.985 103.886 134.182C103.532 134.379 103.252 134.667 103.047 135.045C102.842 135.424 102.739 135.883 102.739 136.422ZM112.683 136.422V142H111.259V132.727H112.635V134.176H112.756C112.973 133.705 113.303 133.327 113.746 133.041C114.188 132.751 114.76 132.607 115.46 132.607C116.088 132.607 116.637 132.735 117.108 132.993C117.579 133.246 117.945 133.633 118.207 134.152C118.469 134.667 118.599 135.319 118.599 136.108V142H117.175V136.205C117.175 135.476 116.986 134.909 116.607 134.502C116.229 134.092 115.71 133.886 115.05 133.886C114.595 133.886 114.188 133.985 113.83 134.182C113.476 134.379 113.196 134.667 112.991 135.045C112.786 135.424 112.683 135.883 112.683 136.422ZM125.091 142.193C124.197 142.193 123.427 141.996 122.779 141.602C122.135 141.203 121.638 140.648 121.287 139.935C120.941 139.219 120.768 138.386 120.768 137.436C120.768 136.486 120.941 135.649 121.287 134.925C121.638 134.196 122.125 133.629 122.748 133.222C123.376 132.812 124.109 132.607 124.946 132.607C125.429 132.607 125.906 132.687 126.377 132.848C126.847 133.009 127.276 133.271 127.662 133.633C128.049 133.991 128.357 134.466 128.586 135.058C128.815 135.649 128.93 136.378 128.93 137.243V137.847H121.782V136.615H127.481C127.481 136.092 127.377 135.625 127.167 135.214C126.962 134.804 126.668 134.48 126.286 134.243C125.908 134.005 125.461 133.886 124.946 133.886C124.378 133.886 123.887 134.027 123.473 134.309C123.062 134.587 122.746 134.949 122.525 135.396C122.304 135.842 122.193 136.321 122.193 136.832V137.653C122.193 138.354 122.314 138.947 122.555 139.434C122.801 139.917 123.141 140.286 123.575 140.539C124.01 140.789 124.515 140.913 125.091 140.913C125.465 140.913 125.803 140.861 126.105 140.756C126.411 140.648 126.674 140.487 126.896 140.273C127.117 140.056 127.288 139.786 127.409 139.464L128.785 139.851C128.64 140.318 128.397 140.728 128.055 141.082C127.713 141.433 127.29 141.706 126.787 141.903C126.284 142.097 125.719 142.193 125.091 142.193ZM134.864 142.193C133.995 142.193 133.247 141.988 132.619 141.577C131.991 141.167 131.508 140.601 131.17 139.881C130.832 139.161 130.663 138.338 130.663 137.412C130.663 136.47 130.836 135.639 131.182 134.919C131.532 134.194 132.019 133.629 132.643 133.222C133.271 132.812 134.003 132.607 134.84 132.607C135.492 132.607 136.08 132.727 136.603 132.969C137.126 133.21 137.555 133.548 137.889 133.983C138.223 134.418 138.43 134.925 138.511 135.504H137.086C136.977 135.082 136.736 134.707 136.362 134.381C135.991 134.051 135.492 133.886 134.864 133.886C134.309 133.886 133.822 134.031 133.404 134.321C132.989 134.607 132.665 135.011 132.432 135.534C132.202 136.054 132.087 136.663 132.087 137.364C132.087 138.08 132.2 138.704 132.426 139.235C132.655 139.766 132.977 140.179 133.391 140.473C133.81 140.766 134.301 140.913 134.864 140.913C135.235 140.913 135.571 140.849 135.873 140.72C136.174 140.591 136.43 140.406 136.639 140.165C136.849 139.923 136.998 139.634 137.086 139.295H138.511C138.43 139.843 138.231 140.336 137.913 140.775C137.599 141.209 137.183 141.555 136.663 141.813C136.148 142.066 135.549 142.193 134.864 142.193ZM144.626 132.727V133.935H139.821V132.727H144.626ZM141.221 130.506H142.646V139.344C142.646 139.746 142.704 140.048 142.821 140.249C142.942 140.446 143.095 140.579 143.28 140.648C143.469 140.712 143.668 140.744 143.878 140.744C144.035 140.744 144.163 140.736 144.264 140.72C144.365 140.7 144.445 140.684 144.505 140.672L144.795 141.952C144.699 141.988 144.564 142.024 144.391 142.06C144.218 142.101 143.998 142.121 143.733 142.121C143.33 142.121 142.936 142.034 142.549 141.861C142.167 141.688 141.849 141.424 141.596 141.07C141.346 140.716 141.221 140.269 141.221 139.73V130.506ZM150.557 142.193C149.664 142.193 148.893 141.996 148.245 141.602C147.601 141.203 147.104 140.648 146.754 139.935C146.408 139.219 146.235 138.386 146.235 137.436C146.235 136.486 146.408 135.649 146.754 134.925C147.104 134.196 147.591 133.629 148.215 133.222C148.843 132.812 149.575 132.607 150.413 132.607C150.896 132.607 151.372 132.687 151.843 132.848C152.314 133.009 152.743 133.271 153.129 133.633C153.516 133.991 153.823 134.466 154.053 135.058C154.282 135.649 154.397 136.378 154.397 137.243V137.847H147.249V136.615H152.948C152.948 136.092 152.843 135.625 152.634 135.214C152.429 134.804 152.135 134.48 151.753 134.243C151.374 134.005 150.928 133.886 150.413 133.886C149.845 133.886 149.354 134.027 148.94 134.309C148.529 134.587 148.213 134.949 147.992 135.396C147.77 135.842 147.66 136.321 147.66 136.832V137.653C147.66 138.354 147.78 138.947 148.022 139.434C148.267 139.917 148.608 140.286 149.042 140.539C149.477 140.789 149.982 140.913 150.557 140.913C150.932 140.913 151.27 140.861 151.572 140.756C151.878 140.648 152.141 140.487 152.363 140.273C152.584 140.056 152.755 139.786 152.876 139.464L154.252 139.851C154.107 140.318 153.864 140.728 153.522 141.082C153.18 141.433 152.757 141.706 152.254 141.903C151.751 142.097 151.185 142.193 150.557 142.193ZM160.066 142.193C159.293 142.193 158.611 141.998 158.019 141.608C157.428 141.213 156.965 140.658 156.631 139.941C156.297 139.221 156.13 138.37 156.13 137.388C156.13 136.414 156.297 135.569 156.631 134.852C156.965 134.136 157.43 133.583 158.025 133.192C158.621 132.802 159.309 132.607 160.09 132.607C160.693 132.607 161.17 132.707 161.521 132.908C161.875 133.106 162.144 133.331 162.33 133.585C162.519 133.834 162.666 134.039 162.77 134.2H162.891V129.636H164.316V142H162.939V140.575H162.77C162.666 140.744 162.517 140.958 162.323 141.215C162.13 141.469 161.855 141.696 161.496 141.897C161.138 142.095 160.661 142.193 160.066 142.193ZM160.259 140.913C160.83 140.913 161.313 140.764 161.708 140.467C162.102 140.165 162.402 139.748 162.607 139.217C162.812 138.682 162.915 138.064 162.915 137.364C162.915 136.671 162.814 136.066 162.613 135.547C162.412 135.023 162.114 134.617 161.72 134.327C161.325 134.033 160.838 133.886 160.259 133.886C159.655 133.886 159.152 134.041 158.75 134.351C158.351 134.657 158.051 135.074 157.85 135.601C157.653 136.124 157.554 136.712 157.554 137.364C157.554 138.024 157.655 138.623 157.856 139.163C158.061 139.698 158.363 140.125 158.762 140.442C159.164 140.756 159.663 140.913 160.259 140.913ZM175.937 132.727V133.935H171.131V132.727H175.937ZM172.532 130.506H173.957V139.344C173.957 139.746 174.015 140.048 174.132 140.249C174.252 140.446 174.405 140.579 174.591 140.648C174.78 140.712 174.979 140.744 175.188 140.744C175.345 140.744 175.474 140.736 175.575 140.72C175.675 140.7 175.756 140.684 175.816 140.672L176.106 141.952C176.009 141.988 175.874 142.024 175.701 142.06C175.528 142.101 175.309 142.121 175.043 142.121C174.641 142.121 174.246 142.034 173.86 141.861C173.478 141.688 173.16 141.424 172.906 141.07C172.657 140.716 172.532 140.269 172.532 139.73V130.506ZM181.747 142.193C180.91 142.193 180.176 141.994 179.544 141.596C178.916 141.197 178.425 140.64 178.071 139.923C177.721 139.207 177.546 138.37 177.546 137.412C177.546 136.446 177.721 135.603 178.071 134.882C178.425 134.162 178.916 133.603 179.544 133.204C180.176 132.806 180.91 132.607 181.747 132.607C182.584 132.607 183.317 132.806 183.945 133.204C184.577 133.603 185.068 134.162 185.418 134.882C185.772 135.603 185.949 136.446 185.949 137.412C185.949 138.37 185.772 139.207 185.418 139.923C185.068 140.64 184.577 141.197 183.945 141.596C183.317 141.994 182.584 142.193 181.747 142.193ZM181.747 140.913C182.383 140.913 182.906 140.75 183.317 140.424C183.727 140.098 184.031 139.67 184.228 139.138C184.426 138.607 184.524 138.032 184.524 137.412C184.524 136.792 184.426 136.215 184.228 135.679C184.031 135.144 183.727 134.711 183.317 134.381C182.906 134.051 182.383 133.886 181.747 133.886C181.111 133.886 180.588 134.051 180.178 134.381C179.767 134.711 179.463 135.144 179.266 135.679C179.069 136.215 178.97 136.792 178.97 137.412C178.97 138.032 179.069 138.607 179.266 139.138C179.463 139.67 179.767 140.098 180.178 140.424C180.588 140.75 181.111 140.913 181.747 140.913ZM189.162 142.097C188.864 142.097 188.609 141.99 188.395 141.777C188.182 141.563 188.076 141.308 188.076 141.01C188.076 140.712 188.182 140.457 188.395 140.243C188.609 140.03 188.864 139.923 189.162 139.923C189.46 139.923 189.716 140.03 189.929 140.243C190.142 140.457 190.249 140.712 190.249 141.01C190.249 141.207 190.198 141.388 190.098 141.553C190.001 141.718 189.87 141.851 189.705 141.952C189.544 142.048 189.363 142.097 189.162 142.097ZM189.162 135.214C188.864 135.214 188.609 135.108 188.395 134.895C188.182 134.681 188.076 134.426 188.076 134.128C188.076 133.83 188.182 133.574 188.395 133.361C188.609 133.148 188.864 133.041 189.162 133.041C189.46 133.041 189.716 133.148 189.929 133.361C190.142 133.574 190.249 133.83 190.249 134.128C190.249 134.325 190.198 134.506 190.098 134.671C190.001 134.836 189.87 134.969 189.705 135.07C189.544 135.166 189.363 135.214 189.162 135.214ZM65.7393 163V150.636H67.2365V156.77H67.3814L72.9354 150.636H74.8913L69.6996 156.214L74.8913 163H73.0803L68.782 157.253L67.2365 158.991V163H65.7393ZM79.3647 163.217C78.7771 163.217 78.2438 163.107 77.7649 162.885C77.286 162.66 76.9057 162.336 76.6239 161.913C76.3422 161.487 76.2013 160.972 76.2013 160.368C76.2013 159.837 76.306 159.406 76.5153 159.076C76.7246 158.742 77.0043 158.48 77.3544 158.291C77.7045 158.102 78.0909 157.961 78.5135 157.869C78.9401 157.772 79.3687 157.696 79.7994 157.639C80.3628 157.567 80.8196 157.512 81.1697 157.476C81.5239 157.436 81.7815 157.37 81.9425 157.277C82.1075 157.184 82.19 157.023 82.19 156.794V156.746C82.19 156.15 82.027 155.687 81.701 155.357C81.379 155.027 80.89 154.862 80.234 154.862C79.5539 154.862 79.0206 155.011 78.6342 155.309C78.2479 155.607 77.9762 155.925 77.8192 156.263L76.467 155.78C76.7085 155.216 77.0304 154.778 77.4329 154.464C77.8394 154.146 78.2821 153.924 78.761 153.8C79.244 153.671 79.7189 153.607 80.1857 153.607C80.4835 153.607 80.8256 153.643 81.212 153.715C81.6024 153.784 81.9787 153.926 82.3409 154.144C82.7071 154.361 83.011 154.689 83.2525 155.128C83.494 155.567 83.6147 156.154 83.6147 156.891V163H82.19V161.744H82.1175C82.021 161.946 81.86 162.161 81.6346 162.39C81.4092 162.62 81.1094 162.815 80.7351 162.976C80.3608 163.137 79.904 163.217 79.3647 163.217ZM79.582 161.938C80.1455 161.938 80.6204 161.827 81.0067 161.605C81.3971 161.384 81.6909 161.098 81.8881 160.748C82.0894 160.398 82.19 160.03 82.19 159.643V158.339C82.1296 158.412 81.9968 158.478 81.7915 158.539C81.5903 158.595 81.3569 158.645 81.0913 158.69C80.8297 158.73 80.5741 158.766 80.3246 158.798C80.0791 158.826 79.8799 158.851 79.7269 158.871C79.3567 158.919 79.0105 158.998 78.6886 159.106C78.3706 159.211 78.113 159.37 77.9158 159.583C77.7227 159.792 77.6261 160.078 77.6261 160.44C77.6261 160.935 77.8092 161.31 78.1754 161.563C78.5457 161.813 79.0146 161.938 79.582 161.938ZM87.6398 157.422V163H86.2151V153.727H87.5915V155.176H87.7123C87.9296 154.705 88.2596 154.327 88.7023 154.041C89.145 153.751 89.7165 153.607 90.4168 153.607C91.0447 153.607 91.594 153.735 92.0649 153.993C92.5358 154.246 92.902 154.633 93.1636 155.152C93.4252 155.667 93.556 156.319 93.556 157.108V163H92.1313V157.205C92.1313 156.476 91.9421 155.909 91.5638 155.502C91.1855 155.092 90.6663 154.886 90.0063 154.886C89.5515 154.886 89.145 154.985 88.7868 155.182C88.4327 155.379 88.153 155.667 87.9477 156.045C87.7425 156.424 87.6398 156.883 87.6398 157.422ZM98.8881 163.217C98.3005 163.217 97.7673 163.107 97.2884 162.885C96.8094 162.66 96.4291 162.336 96.1474 161.913C95.8656 161.487 95.7248 160.972 95.7248 160.368C95.7248 159.837 95.8294 159.406 96.0387 159.076C96.248 158.742 96.5277 158.48 96.8778 158.291C97.228 158.102 97.6143 157.961 98.0369 157.869C98.4635 157.772 98.8922 157.696 99.3228 157.639C99.8862 157.567 100.343 157.512 100.693 157.476C101.047 157.436 101.305 157.37 101.466 157.277C101.631 157.184 101.713 157.023 101.713 156.794V156.746C101.713 156.15 101.55 155.687 101.224 155.357C100.902 155.027 100.413 154.862 99.7575 154.862C99.0773 154.862 98.544 155.011 98.1577 155.309C97.7713 155.607 97.4996 155.925 97.3427 156.263L95.9904 155.78C96.2319 155.216 96.5539 154.778 96.9563 154.464C97.3628 154.146 97.8055 153.924 98.2844 153.8C98.7674 153.671 99.2423 153.607 99.7092 153.607C100.007 153.607 100.349 153.643 100.735 153.715C101.126 153.784 101.502 153.926 101.864 154.144C102.231 154.361 102.534 154.689 102.776 155.128C103.017 155.567 103.138 156.154 103.138 156.891V163H101.713V161.744H101.641C101.544 161.946 101.383 162.161 101.158 162.39C100.933 162.62 100.633 162.815 100.259 162.976C99.8842 163.137 99.4274 163.217 98.8881 163.217ZM99.1055 161.938C99.6689 161.938 100.144 161.827 100.53 161.605C100.921 161.384 101.214 161.098 101.412 160.748C101.613 160.398 101.713 160.03 101.713 159.643V158.339C101.653 158.412 101.52 158.478 101.315 158.539C101.114 158.595 100.88 158.645 100.615 158.69C100.353 158.73 100.098 158.766 99.848 158.798C99.6025 158.826 99.4033 158.851 99.2504 158.871C98.8801 158.919 98.534 158.998 98.212 159.106C97.8941 159.211 97.6365 159.37 97.4393 159.583C97.2461 159.792 97.1495 160.078 97.1495 160.44C97.1495 160.935 97.3326 161.31 97.6989 161.563C98.0691 161.813 98.538 161.938 99.1055 161.938ZM107.163 157.422V163H105.739V153.727H107.115V155.176H107.236C107.453 154.705 107.783 154.327 108.226 154.041C108.668 153.751 109.24 153.607 109.94 153.607C110.568 153.607 111.117 153.735 111.588 153.993C112.059 154.246 112.425 154.633 112.687 155.152C112.949 155.667 113.079 156.319 113.079 157.108V163H111.655V157.205C111.655 156.476 111.466 155.909 111.087 155.502C110.709 155.092 110.19 154.886 109.53 154.886C109.075 154.886 108.668 154.985 108.31 155.182C107.956 155.379 107.676 155.667 107.471 156.045C107.266 156.424 107.163 156.883 107.163 157.422ZM119.571 163.193C118.677 163.193 117.906 162.996 117.259 162.602C116.615 162.203 116.118 161.648 115.767 160.935C115.421 160.219 115.248 159.386 115.248 158.436C115.248 157.486 115.421 156.649 115.767 155.925C116.118 155.196 116.605 154.629 117.228 154.222C117.856 153.812 118.589 153.607 119.426 153.607C119.909 153.607 120.386 153.687 120.857 153.848C121.327 154.009 121.756 154.271 122.142 154.633C122.529 154.991 122.837 155.466 123.066 156.058C123.295 156.649 123.41 157.378 123.41 158.243V158.847H116.262V157.615H121.961C121.961 157.092 121.857 156.625 121.647 156.214C121.442 155.804 121.148 155.48 120.766 155.243C120.388 155.005 119.941 154.886 119.426 154.886C118.858 154.886 118.367 155.027 117.953 155.309C117.542 155.587 117.226 155.949 117.005 156.396C116.784 156.842 116.673 157.321 116.673 157.832V158.653C116.673 159.354 116.794 159.947 117.035 160.434C117.281 160.917 117.621 161.286 118.055 161.539C118.49 161.789 118.995 161.913 119.571 161.913C119.945 161.913 120.283 161.861 120.585 161.756C120.891 161.648 121.154 161.487 121.376 161.273C121.597 161.056 121.768 160.786 121.889 160.464L123.265 160.851C123.12 161.318 122.877 161.728 122.535 162.082C122.193 162.433 121.77 162.706 121.267 162.903C120.764 163.097 120.199 163.193 119.571 163.193ZM127.002 150.636V163H125.577V150.636H127.002ZM133.379 163.193C132.542 163.193 131.807 162.994 131.175 162.596C130.547 162.197 130.056 161.64 129.702 160.923C129.352 160.207 129.177 159.37 129.177 158.412C129.177 157.446 129.352 156.603 129.702 155.882C130.056 155.162 130.547 154.603 131.175 154.204C131.807 153.806 132.542 153.607 133.379 153.607C134.216 153.607 134.948 153.806 135.576 154.204C136.208 154.603 136.699 155.162 137.049 155.882C137.403 156.603 137.58 157.446 137.58 158.412C137.58 159.37 137.403 160.207 137.049 160.923C136.699 161.64 136.208 162.197 135.576 162.596C134.948 162.994 134.216 163.193 133.379 163.193ZM133.379 161.913C134.015 161.913 134.538 161.75 134.948 161.424C135.359 161.098 135.663 160.67 135.86 160.138C136.057 159.607 136.156 159.032 136.156 158.412C136.156 157.792 136.057 157.215 135.86 156.679C135.663 156.144 135.359 155.711 134.948 155.381C134.538 155.051 134.015 154.886 133.379 154.886C132.743 154.886 132.22 155.051 131.809 155.381C131.399 155.711 131.095 156.144 130.897 156.679C130.7 157.215 130.602 157.792 130.602 158.412C130.602 159.032 130.7 159.607 130.897 160.138C131.095 160.67 131.399 161.098 131.809 161.424C132.22 161.75 132.743 161.913 133.379 161.913ZM141.011 150.636V151.723C141.011 152.053 140.95 152.405 140.83 152.779C140.713 153.15 140.54 153.51 140.311 153.86C140.085 154.206 139.811 154.508 139.49 154.766L138.717 154.138C138.97 153.776 139.19 153.399 139.375 153.009C139.564 152.614 139.659 152.194 139.659 151.747V150.636H141.011ZM148.15 155.804L146.87 156.166C146.789 155.953 146.67 155.746 146.513 155.544C146.361 155.339 146.151 155.17 145.886 155.037C145.62 154.904 145.28 154.838 144.865 154.838C144.298 154.838 143.825 154.969 143.447 155.23C143.072 155.488 142.885 155.816 142.885 156.214C142.885 156.569 143.014 156.848 143.272 157.054C143.529 157.259 143.932 157.43 144.479 157.567L145.855 157.905C146.685 158.106 147.302 158.414 147.709 158.828C148.115 159.239 148.319 159.768 148.319 160.416C148.319 160.947 148.166 161.422 147.86 161.841C147.558 162.259 147.135 162.589 146.592 162.831C146.049 163.072 145.417 163.193 144.696 163.193C143.751 163.193 142.968 162.988 142.348 162.577C141.728 162.167 141.336 161.567 141.171 160.778L142.523 160.44C142.652 160.939 142.895 161.314 143.254 161.563C143.616 161.813 144.089 161.938 144.672 161.938C145.336 161.938 145.864 161.797 146.254 161.515C146.648 161.229 146.846 160.887 146.846 160.489C146.846 160.167 146.733 159.897 146.507 159.68C146.282 159.458 145.936 159.293 145.469 159.185L143.924 158.822C143.074 158.621 142.451 158.309 142.052 157.887C141.658 157.46 141.461 156.927 141.461 156.287C141.461 155.764 141.607 155.301 141.901 154.898C142.199 154.496 142.604 154.18 143.115 153.951C143.63 153.721 144.213 153.607 144.865 153.607C145.783 153.607 146.503 153.808 147.027 154.21C147.554 154.613 147.928 155.144 148.15 155.804ZM155.438 163V150.636H159.615C160.585 150.636 161.378 150.811 161.994 151.162C162.613 151.508 163.072 151.977 163.37 152.568C163.668 153.16 163.817 153.82 163.817 154.548C163.817 155.277 163.668 155.939 163.37 156.534C163.076 157.13 162.622 157.605 162.006 157.959C161.39 158.309 160.601 158.484 159.639 158.484H156.645V157.156H159.591C160.255 157.156 160.788 157.042 161.191 156.812C161.593 156.583 161.885 156.273 162.066 155.882C162.251 155.488 162.344 155.043 162.344 154.548C162.344 154.053 162.251 153.611 162.066 153.22C161.885 152.83 161.591 152.524 161.185 152.303C160.778 152.077 160.239 151.964 159.567 151.964H156.935V163H155.438ZM167.46 157.422V163H166.035V150.636H167.46V155.176H167.581C167.798 154.697 168.124 154.317 168.559 154.035C168.998 153.749 169.581 153.607 170.31 153.607C170.941 153.607 171.495 153.733 171.97 153.987C172.445 154.236 172.813 154.621 173.074 155.14C173.34 155.655 173.473 156.311 173.473 157.108V163H172.048V157.205C172.048 156.468 171.857 155.899 171.475 155.496C171.096 155.09 170.571 154.886 169.899 154.886C169.432 154.886 169.014 154.985 168.643 155.182C168.277 155.379 167.987 155.667 167.774 156.045C167.565 156.424 167.46 156.883 167.46 157.422ZM179.846 163.193C179.009 163.193 178.275 162.994 177.643 162.596C177.015 162.197 176.524 161.64 176.17 160.923C175.82 160.207 175.645 159.37 175.645 158.412C175.645 157.446 175.82 156.603 176.17 155.882C176.524 155.162 177.015 154.603 177.643 154.204C178.275 153.806 179.009 153.607 179.846 153.607C180.684 153.607 181.416 153.806 182.044 154.204C182.676 154.603 183.167 155.162 183.517 155.882C183.871 156.603 184.048 157.446 184.048 158.412C184.048 159.37 183.871 160.207 183.517 160.923C183.167 161.64 182.676 162.197 182.044 162.596C181.416 162.994 180.684 163.193 179.846 163.193ZM179.846 161.913C180.482 161.913 181.006 161.75 181.416 161.424C181.827 161.098 182.13 160.67 182.328 160.138C182.525 159.607 182.623 159.032 182.623 158.412C182.623 157.792 182.525 157.215 182.328 156.679C182.13 156.144 181.827 155.711 181.416 155.381C181.006 155.051 180.482 154.886 179.846 154.886C179.211 154.886 178.687 155.051 178.277 155.381C177.866 155.711 177.562 156.144 177.365 156.679C177.168 157.215 177.069 157.792 177.069 158.412C177.069 159.032 177.168 159.607 177.365 160.138C177.562 160.67 177.866 161.098 178.277 161.424C178.687 161.75 179.211 161.913 179.846 161.913ZM187.648 157.422V163H186.223V153.727H187.599V155.176H187.72C187.937 154.705 188.267 154.327 188.71 154.041C189.153 153.751 189.724 153.607 190.425 153.607C191.052 153.607 191.602 153.735 192.073 153.993C192.544 154.246 192.91 154.633 193.171 155.152C193.433 155.667 193.564 156.319 193.564 157.108V163H192.139V157.205C192.139 156.476 191.95 155.909 191.572 155.502C191.193 155.092 190.674 154.886 190.014 154.886C189.559 154.886 189.153 154.985 188.795 155.182C188.44 155.379 188.161 155.667 187.956 156.045C187.75 156.424 187.648 156.883 187.648 157.422ZM200.055 163.193C199.162 163.193 198.391 162.996 197.743 162.602C197.099 162.203 196.602 161.648 196.252 160.935C195.906 160.219 195.733 159.386 195.733 158.436C195.733 157.486 195.906 156.649 196.252 155.925C196.602 155.196 197.089 154.629 197.713 154.222C198.341 153.812 199.073 153.607 199.91 153.607C200.393 153.607 200.87 153.687 201.341 153.848C201.812 154.009 202.24 154.271 202.627 154.633C203.013 154.991 203.321 155.466 203.55 156.058C203.78 156.649 203.895 157.378 203.895 158.243V158.847H196.747V157.615H202.446C202.446 157.092 202.341 156.625 202.132 156.214C201.926 155.804 201.633 155.48 201.25 155.243C200.872 155.005 200.425 154.886 199.91 154.886C199.343 154.886 198.852 155.027 198.437 155.309C198.027 155.587 197.711 155.949 197.489 156.396C197.268 156.842 197.157 157.321 197.157 157.832V158.653C197.157 159.354 197.278 159.947 197.52 160.434C197.765 160.917 198.105 161.286 198.54 161.539C198.974 161.789 199.48 161.913 200.055 161.913C200.429 161.913 200.767 161.861 201.069 161.756C201.375 161.648 201.639 161.487 201.86 161.273C202.081 161.056 202.252 160.786 202.373 160.464L203.75 160.851C203.605 161.318 203.361 161.728 203.019 162.082C202.677 162.433 202.254 162.706 201.751 162.903C201.248 163.097 200.683 163.193 200.055 163.193Z" fill="white"/>
<path d="M34 211H39V206H34V211ZM41.5 226H46.5V221H41.5V226ZM34 226H39V221H34V226ZM34 218.5H39V213.5H34V218.5ZM41.5 218.5H46.5V213.5H41.5V218.5ZM49 206V211H54V206H49ZM41.5 211H46.5V206H41.5V211ZM49 218.5H54V213.5H49V218.5ZM49 226H54V221H49V226Z" fill="white"/>
</g>
<rect x="0.5" y="0.5" width="269" height="269" rx="25.5" stroke="white"/>
<defs>
<clipPath id="clip0_211_1366">
<rect width="270" height="270" rx="26" fill="white"/>
</clipPath>
</defs>
</svg>
