<svg width="270" height="270" viewBox="0 0 270 270" fill="none" xmlns="http://www.w3.org/2000/svg">
<g clip-path="url(#clip0_211_1292)">
<rect width="270" height="270" rx="26" fill="#252525"/>
<rect x="20" y="186" width="229" height="60" rx="13" fill="#53B3CB"/>
<rect x="20" y="63" width="229" height="108" rx="13" fill="#F9C22E"/>
<path d="M48.4137 209.5H46.7404C46.6415 209.019 46.4683 208.596 46.2209 208.232C45.978 207.867 45.6811 207.561 45.3303 207.314C44.9839 207.062 44.5993 206.873 44.1765 206.747C43.7537 206.621 43.3129 206.558 42.854 206.558C42.0174 206.558 41.2595 206.77 40.5803 207.192C39.9055 207.615 39.368 208.238 38.9677 209.061C38.5719 209.885 38.3739 210.894 38.3739 212.091C38.3739 213.287 38.5719 214.297 38.9677 215.12C39.368 215.944 39.9055 216.567 40.5803 216.989C41.2595 217.412 42.0174 217.624 42.854 217.624C43.3129 217.624 43.7537 217.561 44.1765 217.435C44.5993 217.309 44.9839 217.122 45.3303 216.875C45.6811 216.623 45.978 216.315 46.2209 215.95C46.4683 215.581 46.6415 215.159 46.7404 214.682H48.4137C48.2878 215.388 48.0584 216.02 47.7255 216.578C47.3926 217.136 46.9788 217.61 46.484 218.001C45.9892 218.388 45.4337 218.683 44.8175 218.885C44.2057 219.088 43.5513 219.189 42.854 219.189C41.6755 219.189 40.6275 218.901 39.7099 218.325C38.7923 217.75 38.0703 216.931 37.544 215.869C37.0178 214.808 36.7546 213.548 36.7546 212.091C36.7546 210.634 37.0178 209.374 37.544 208.312C38.0703 207.251 38.7923 206.432 39.7099 205.857C40.6275 205.281 41.6755 204.993 42.854 204.993C43.5513 204.993 44.2057 205.094 44.8175 205.297C45.4337 205.499 45.9892 205.796 46.484 206.187C46.9788 206.574 47.3926 207.046 47.7255 207.604C48.0584 208.157 48.2878 208.789 48.4137 209.5ZM55.1119 219.216C54.1763 219.216 53.3554 218.993 52.6492 218.548C51.9475 218.103 51.3988 217.48 51.0029 216.679C50.6116 215.878 50.4159 214.943 50.4159 213.872C50.4159 212.793 50.6116 211.85 51.0029 211.045C51.3988 210.24 51.9475 209.615 52.6492 209.169C53.3554 208.724 54.1763 208.501 55.1119 208.501C56.0476 208.501 56.8662 208.724 57.5679 209.169C58.2741 209.615 58.8229 210.24 59.2142 211.045C59.6101 211.85 59.808 212.793 59.808 213.872C59.808 214.943 59.6101 215.878 59.2142 216.679C58.8229 217.48 58.2741 218.103 57.5679 218.548C56.8662 218.993 56.0476 219.216 55.1119 219.216ZM55.1119 217.786C55.8227 217.786 56.4074 217.603 56.8662 217.239C57.325 216.875 57.6646 216.396 57.885 215.802C58.1054 215.208 58.2156 214.565 58.2156 213.872C58.2156 213.179 58.1054 212.534 57.885 211.936C57.6646 211.337 57.325 210.854 56.8662 210.485C56.4074 210.116 55.8227 209.932 55.1119 209.932C54.4012 209.932 53.8165 210.116 53.3577 210.485C52.8989 210.854 52.5593 211.337 52.3389 211.936C52.1185 212.534 52.0083 213.179 52.0083 213.872C52.0083 214.565 52.1185 215.208 52.3389 215.802C52.5593 216.396 52.8989 216.875 53.3577 217.239C53.8165 217.603 54.4012 217.786 55.1119 217.786ZM63.831 212.766V219H62.2386V208.636H63.777V210.256H63.9119C64.1548 209.729 64.5237 209.307 65.0185 208.987C65.5133 208.663 66.152 208.501 66.9347 208.501C67.6364 208.501 68.2504 208.645 68.7766 208.933C69.3029 209.217 69.7122 209.648 70.0046 210.229C70.297 210.804 70.4432 211.533 70.4432 212.415V219H68.8509V212.523C68.8509 211.709 68.6394 211.074 68.2166 210.62C67.7938 210.161 67.2135 209.932 66.4759 209.932C65.9676 209.932 65.5133 210.042 65.1129 210.262C64.7171 210.483 64.4045 210.804 64.1751 211.227C63.9457 211.65 63.831 212.163 63.831 212.766ZM74.9452 212.766V219H73.3529V208.636H74.8912V210.256H75.0262C75.2691 209.729 75.6379 209.307 76.1327 208.987C76.6275 208.663 77.2662 208.501 78.0489 208.501C78.7506 208.501 79.3646 208.645 79.8909 208.933C80.4172 209.217 80.8265 209.648 81.1189 210.229C81.4113 210.804 81.5574 211.533 81.5574 212.415V219H79.9651V212.523C79.9651 211.709 79.7537 211.074 79.3309 210.62C78.9081 210.161 78.3278 209.932 77.5901 209.932C77.0818 209.932 76.6275 210.042 76.2272 210.262C75.8314 210.483 75.5187 210.804 75.2893 211.227C75.0599 211.65 74.9452 212.163 74.9452 212.766ZM88.8123 219.216C87.8137 219.216 86.9524 218.996 86.2282 218.555C85.5085 218.109 84.9529 217.489 84.5616 216.692C84.1748 215.892 83.9814 214.961 83.9814 213.899C83.9814 212.838 84.1748 211.902 84.5616 211.092C84.9529 210.278 85.4972 209.644 86.1944 209.19C86.8961 208.731 87.7148 208.501 88.6504 208.501C89.1902 208.501 89.7232 208.591 90.2495 208.771C90.7757 208.951 91.2548 209.244 91.6866 209.648C92.1184 210.049 92.4625 210.58 92.7189 211.241C92.9753 211.902 93.1035 212.716 93.1035 213.683V214.358H85.1149V212.982H91.4842C91.4842 212.397 91.3672 211.875 91.1333 211.416C90.9039 210.957 90.5756 210.595 90.1483 210.33C89.7254 210.065 89.2261 209.932 88.6504 209.932C88.0162 209.932 87.4674 210.089 87.0041 210.404C86.5453 210.714 86.1922 211.119 85.9448 211.619C85.6974 212.118 85.5737 212.653 85.5737 213.224V214.142C85.5737 214.925 85.7086 215.588 85.9785 216.132C86.2529 216.672 86.633 217.084 87.1188 217.367C87.6046 217.646 88.1691 217.786 88.8123 217.786C89.2306 217.786 89.6085 217.727 89.9458 217.61C90.2877 217.489 90.5823 217.309 90.8297 217.07C91.0771 216.827 91.2683 216.526 91.4032 216.166L92.9416 216.598C92.7797 217.12 92.5075 217.579 92.1252 217.974C91.7428 218.366 91.2705 218.672 90.7083 218.892C90.146 219.108 89.514 219.216 88.8123 219.216ZM99.736 219.216C98.7644 219.216 97.9277 218.987 97.226 218.528C96.5243 218.069 95.9846 217.437 95.6067 216.632C95.2289 215.827 95.04 214.907 95.04 213.872C95.04 212.82 95.2334 211.891 95.6202 211.086C96.0115 210.276 96.5558 209.644 97.253 209.19C97.9547 208.731 98.7734 208.501 99.709 208.501C100.438 208.501 101.094 208.636 101.679 208.906C102.264 209.176 102.743 209.554 103.116 210.04C103.49 210.526 103.721 211.092 103.811 211.74H102.219C102.097 211.268 101.828 210.849 101.409 210.485C100.995 210.116 100.438 209.932 99.736 209.932C99.1152 209.932 98.571 210.094 98.1032 210.418C97.6399 210.737 97.2778 211.189 97.0169 211.774C96.7605 212.354 96.6323 213.036 96.6323 213.818C96.6323 214.619 96.7582 215.316 97.0101 215.91C97.2665 216.504 97.6264 216.965 98.0897 217.293C98.5575 217.621 99.1062 217.786 99.736 217.786C100.15 217.786 100.525 217.714 100.863 217.57C101.2 217.426 101.486 217.219 101.72 216.949C101.954 216.679 102.12 216.355 102.219 215.977H103.811C103.721 216.589 103.499 217.14 103.143 217.63C102.792 218.116 102.327 218.503 101.747 218.791C101.171 219.074 100.501 219.216 99.736 219.216ZM110.646 208.636V209.986H105.275V208.636H110.646ZM106.841 206.153H108.433V216.031C108.433 216.481 108.498 216.818 108.629 217.043C108.764 217.264 108.935 217.412 109.142 217.489C109.353 217.561 109.576 217.597 109.809 217.597C109.985 217.597 110.129 217.588 110.241 217.57C110.354 217.547 110.444 217.529 110.511 217.516L110.835 218.946C110.727 218.987 110.576 219.027 110.383 219.067C110.19 219.112 109.944 219.135 109.648 219.135C109.198 219.135 108.757 219.038 108.325 218.845C107.898 218.651 107.542 218.357 107.259 217.961C106.98 217.565 106.841 217.066 106.841 216.463V206.153ZM130.26 212.091C130.26 213.548 129.997 214.808 129.471 215.869C128.944 216.931 128.222 217.75 127.305 218.325C126.387 218.901 125.339 219.189 124.161 219.189C122.982 219.189 121.934 218.901 121.017 218.325C120.099 217.75 119.377 216.931 118.851 215.869C118.324 214.808 118.061 213.548 118.061 212.091C118.061 210.634 118.324 209.374 118.851 208.312C119.377 207.251 120.099 206.432 121.017 205.857C121.934 205.281 122.982 204.993 124.161 204.993C125.339 204.993 126.387 205.281 127.305 205.857C128.222 206.432 128.944 207.251 129.471 208.312C129.997 209.374 130.26 210.634 130.26 212.091ZM128.641 212.091C128.641 210.894 128.441 209.885 128.04 209.061C127.644 208.238 127.107 207.615 126.428 207.192C125.753 206.77 124.997 206.558 124.161 206.558C123.324 206.558 122.566 206.77 121.887 207.192C121.212 207.615 120.675 208.238 120.274 209.061C119.878 209.885 119.681 210.894 119.681 212.091C119.681 213.287 119.878 214.297 120.274 215.12C120.675 215.944 121.212 216.567 121.887 216.989C122.566 217.412 123.324 217.624 124.161 217.624C124.997 217.624 125.753 217.412 126.428 216.989C127.107 216.567 127.644 215.944 128.04 215.12C128.441 214.297 128.641 213.287 128.641 212.091ZM137.365 208.636V209.986H131.994V208.636H137.365ZM133.559 206.153H135.152V216.031C135.152 216.481 135.217 216.818 135.347 217.043C135.482 217.264 135.653 217.412 135.86 217.489C136.072 217.561 136.294 217.597 136.528 217.597C136.704 217.597 136.848 217.588 136.96 217.57C137.073 217.547 137.162 217.529 137.23 217.516L137.554 218.946C137.446 218.987 137.295 219.027 137.102 219.067C136.908 219.112 136.663 219.135 136.366 219.135C135.916 219.135 135.476 219.038 135.044 218.845C134.617 218.651 134.261 218.357 133.978 217.961C133.699 217.565 133.559 217.066 133.559 216.463V206.153ZM141.575 212.766V219H139.983V205.182H141.575V210.256H141.71C141.953 209.72 142.317 209.295 142.803 208.98C143.293 208.661 143.946 208.501 144.76 208.501C145.466 208.501 146.084 208.643 146.615 208.926C147.146 209.205 147.558 209.635 147.85 210.215C148.147 210.791 148.295 211.524 148.295 212.415V219H146.703V212.523C146.703 211.7 146.489 211.063 146.062 210.613C145.639 210.159 145.052 209.932 144.301 209.932C143.779 209.932 143.311 210.042 142.898 210.262C142.488 210.483 142.164 210.804 141.926 211.227C141.692 211.65 141.575 212.163 141.575 212.766ZM155.554 219.216C154.555 219.216 153.694 218.996 152.969 218.555C152.25 218.109 151.694 217.489 151.303 216.692C150.916 215.892 150.723 214.961 150.723 213.899C150.723 212.838 150.916 211.902 151.303 211.092C151.694 210.278 152.238 209.644 152.936 209.19C153.637 208.731 154.456 208.501 155.392 208.501C155.931 208.501 156.464 208.591 156.991 208.771C157.517 208.951 157.996 209.244 158.428 209.648C158.86 210.049 159.204 210.58 159.46 211.241C159.717 211.902 159.845 212.716 159.845 213.683V214.358H151.856V212.982H158.225C158.225 212.397 158.108 211.875 157.875 211.416C157.645 210.957 157.317 210.595 156.889 210.33C156.467 210.065 155.967 209.932 155.392 209.932C154.757 209.932 154.209 210.089 153.745 210.404C153.286 210.714 152.933 211.119 152.686 211.619C152.439 212.118 152.315 212.653 152.315 213.224V214.142C152.315 214.925 152.45 215.588 152.72 216.132C152.994 216.672 153.374 217.084 153.86 217.367C154.346 217.646 154.91 217.786 155.554 217.786C155.972 217.786 156.35 217.727 156.687 217.61C157.029 217.489 157.324 217.309 157.571 217.07C157.818 216.827 158.009 216.526 158.144 216.166L159.683 216.598C159.521 217.12 159.249 217.579 158.866 217.974C158.484 218.366 158.012 218.672 157.449 218.892C156.887 219.108 156.255 219.216 155.554 219.216ZM162.267 219V208.636H163.805V210.202H163.913C164.102 209.689 164.444 209.273 164.939 208.953C165.434 208.634 165.991 208.474 166.612 208.474C166.729 208.474 166.875 208.477 167.051 208.481C167.226 208.486 167.359 208.492 167.449 208.501V210.121C167.395 210.107 167.271 210.087 167.078 210.06C166.889 210.029 166.689 210.013 166.477 210.013C165.973 210.013 165.524 210.118 165.128 210.33C164.736 210.537 164.426 210.825 164.197 211.194C163.972 211.558 163.859 211.974 163.859 212.442V219H162.267ZM179.16 219H174.896V205.182H179.349C180.69 205.182 181.837 205.458 182.79 206.012C183.744 206.56 184.475 207.35 184.983 208.38C185.491 209.406 185.745 210.634 185.745 212.064C185.745 213.503 185.489 214.743 184.976 215.782C184.463 216.816 183.717 217.612 182.736 218.17C181.756 218.723 180.564 219 179.16 219ZM176.569 217.516H179.052C180.195 217.516 181.142 217.295 181.893 216.854C182.644 216.414 183.204 215.786 183.573 214.972C183.942 214.158 184.126 213.188 184.126 212.064C184.126 210.948 183.944 209.988 183.58 209.183C183.215 208.373 182.671 207.752 181.947 207.321C181.223 206.884 180.321 206.666 179.241 206.666H176.569V217.516ZM192.681 219.216C191.683 219.216 190.821 218.996 190.097 218.555C189.378 218.109 188.822 217.489 188.431 216.692C188.044 215.892 187.85 214.961 187.85 213.899C187.85 212.838 188.044 211.902 188.431 211.092C188.822 210.278 189.366 209.644 190.064 209.19C190.765 208.731 191.584 208.501 192.52 208.501C193.059 208.501 193.592 208.591 194.119 208.771C194.645 208.951 195.124 209.244 195.556 209.648C195.988 210.049 196.332 210.58 196.588 211.241C196.844 211.902 196.973 212.716 196.973 213.683V214.358H188.984V212.982H195.353C195.353 212.397 195.236 211.875 195.002 211.416C194.773 210.957 194.445 210.595 194.017 210.33C193.595 210.065 193.095 209.932 192.52 209.932C191.885 209.932 191.337 210.089 190.873 210.404C190.414 210.714 190.061 211.119 189.814 211.619C189.567 212.118 189.443 212.653 189.443 213.224V214.142C189.443 214.925 189.578 215.588 189.848 216.132C190.122 216.672 190.502 217.084 190.988 217.367C191.474 217.646 192.038 217.786 192.681 217.786C193.1 217.786 193.478 217.727 193.815 217.61C194.157 217.489 194.451 217.309 194.699 217.07C194.946 216.827 195.137 216.526 195.272 216.166L196.811 216.598C196.649 217.12 196.377 217.579 195.994 217.974C195.612 218.366 195.14 218.672 194.577 218.892C194.015 219.108 193.383 219.216 192.681 219.216ZM207.554 208.636L203.722 219H202.102L198.27 208.636H199.997L202.858 216.895H202.966L205.827 208.636H207.554ZM209.656 219V208.636H211.248V219H209.656ZM210.465 206.909C210.155 206.909 209.887 206.803 209.662 206.592C209.442 206.381 209.332 206.126 209.332 205.83C209.332 205.533 209.442 205.279 209.662 205.067C209.887 204.856 210.155 204.75 210.465 204.75C210.776 204.75 211.041 204.856 211.261 205.067C211.486 205.279 211.599 205.533 211.599 205.83C211.599 206.126 211.486 206.381 211.261 206.592C211.041 206.803 210.776 206.909 210.465 206.909ZM218.375 219.216C217.403 219.216 216.566 218.987 215.865 218.528C215.163 218.069 214.623 217.437 214.245 216.632C213.868 215.827 213.679 214.907 213.679 213.872C213.679 212.82 213.872 211.891 214.259 211.086C214.65 210.276 215.194 209.644 215.892 209.19C216.593 208.731 217.412 208.501 218.348 208.501C219.076 208.501 219.733 208.636 220.318 208.906C220.903 209.176 221.382 209.554 221.755 210.04C222.128 210.526 222.36 211.092 222.45 211.74H220.858C220.736 211.268 220.466 210.849 220.048 210.485C219.634 210.116 219.076 209.932 218.375 209.932C217.754 209.932 217.21 210.094 216.742 210.418C216.279 210.737 215.916 211.189 215.656 211.774C215.399 212.354 215.271 213.036 215.271 213.818C215.271 214.619 215.397 215.316 215.649 215.91C215.905 216.504 216.265 216.965 216.728 217.293C217.196 217.621 217.745 217.786 218.375 217.786C218.788 217.786 219.164 217.714 219.501 217.57C219.839 217.426 220.124 217.219 220.358 216.949C220.592 216.679 220.759 216.355 220.858 215.977H222.45C222.36 216.589 222.137 217.14 221.782 217.63C221.431 218.116 220.966 218.503 220.385 218.791C219.81 219.074 219.139 219.216 218.375 219.216ZM229.123 219.216C228.124 219.216 227.263 218.996 226.539 218.555C225.819 218.109 225.263 217.489 224.872 216.692C224.485 215.892 224.292 214.961 224.292 213.899C224.292 212.838 224.485 211.902 224.872 211.092C225.263 210.278 225.808 209.644 226.505 209.19C227.207 208.731 228.025 208.501 228.961 208.501C229.501 208.501 230.034 208.591 230.56 208.771C231.086 208.951 231.565 209.244 231.997 209.648C232.429 210.049 232.773 210.58 233.029 211.241C233.286 211.902 233.414 212.716 233.414 213.683V214.358H225.425V212.982H231.795C231.795 212.397 231.678 211.875 231.444 211.416C231.214 210.957 230.886 210.595 230.459 210.33C230.036 210.065 229.537 209.932 228.961 209.932C228.327 209.932 227.778 210.089 227.315 210.404C226.856 210.714 226.503 211.119 226.255 211.619C226.008 212.118 225.884 212.653 225.884 213.224V214.142C225.884 214.925 226.019 215.588 226.289 216.132C226.563 216.672 226.944 217.084 227.429 217.367C227.915 217.646 228.48 217.786 229.123 217.786C229.541 217.786 229.919 217.727 230.256 217.61C230.598 217.489 230.893 217.309 231.14 217.07C231.388 216.827 231.579 216.526 231.714 216.166L233.252 216.598C233.09 217.12 232.818 217.579 232.436 217.974C232.053 218.366 231.581 218.672 231.019 218.892C230.457 219.108 229.825 219.216 229.123 219.216Z" fill="white"/>
<path d="M216.409 17.0909V28H215.088V18.4759H215.024L212.361 20.2443V18.902L215.088 17.0909H216.409ZM223.104 28.1491C222.302 28.1491 221.618 27.9308 221.054 27.494C220.489 27.0536 220.058 26.4162 219.759 25.5817C219.461 24.7436 219.312 23.7315 219.312 22.5455C219.312 21.3665 219.461 20.3597 219.759 19.5252C220.061 18.6871 220.494 18.0479 221.059 17.6076C221.627 17.1637 222.309 16.9418 223.104 16.9418C223.9 16.9418 224.58 17.1637 225.145 17.6076C225.713 18.0479 226.146 18.6871 226.444 19.5252C226.746 20.3597 226.897 21.3665 226.897 22.5455C226.897 23.7315 226.748 24.7436 226.45 25.5817C226.151 26.4162 225.72 27.0536 225.155 27.494C224.591 27.9308 223.907 28.1491 223.104 28.1491ZM223.104 26.9773C223.9 26.9773 224.518 26.5937 224.958 25.8267C225.399 25.0597 225.619 23.9659 225.619 22.5455C225.619 21.6009 225.517 20.7965 225.315 20.1325C225.116 19.4684 224.829 18.9624 224.452 18.6143C224.079 18.2663 223.63 18.0923 223.104 18.0923C222.316 18.0923 221.7 18.4812 221.256 19.2589C220.812 20.033 220.59 21.1286 220.59 22.5455C220.59 23.4901 220.69 24.2926 220.889 24.9531C221.087 25.6136 221.373 26.1161 221.746 26.4606C222.123 26.805 222.575 26.9773 223.104 26.9773ZM229.859 26.6044C229.596 26.6044 229.37 26.5103 229.182 26.3221C228.994 26.1339 228.9 25.9084 228.9 25.6456C228.9 25.3828 228.994 25.1573 229.182 24.9691C229.37 24.7809 229.596 24.6868 229.859 24.6868C230.122 24.6868 230.347 24.7809 230.535 24.9691C230.723 25.1573 230.818 25.3828 230.818 25.6456C230.818 25.8196 230.773 25.9794 230.684 26.125C230.599 26.2706 230.484 26.3878 230.338 26.4766C230.196 26.5618 230.036 26.6044 229.859 26.6044ZM229.859 21.0859C229.596 21.0859 229.37 20.9918 229.182 20.8036C228.994 20.6154 228.9 20.3899 228.9 20.1271C228.9 19.8643 228.994 19.6388 229.182 19.4506C229.37 19.2624 229.596 19.1683 229.859 19.1683C230.122 19.1683 230.347 19.2624 230.535 19.4506C230.723 19.6388 230.818 19.8643 230.818 20.1271C230.818 20.3011 230.773 20.4609 230.684 20.6065C230.599 20.7521 230.484 20.8693 230.338 20.9581C230.196 21.0433 230.036 21.0859 229.859 21.0859ZM233.052 28V27.0412L236.653 23.0994C237.076 22.6378 237.424 22.2365 237.697 21.8956C237.97 21.5511 238.173 21.228 238.304 20.9261C238.439 20.6207 238.507 20.3011 238.507 19.9673C238.507 19.5838 238.414 19.2518 238.23 18.9712C238.049 18.6907 237.8 18.4741 237.484 18.3214C237.168 18.1687 236.813 18.0923 236.419 18.0923C236 18.0923 235.634 18.1793 235.321 18.3533C235.012 18.5238 234.773 18.7635 234.602 19.0724C234.435 19.3814 234.352 19.7436 234.352 20.1591H233.095C233.095 19.5199 233.242 18.9588 233.537 18.4759C233.832 17.9929 234.233 17.6165 234.741 17.3466C235.252 17.0767 235.826 16.9418 236.461 16.9418C237.1 16.9418 237.667 17.0767 238.16 17.3466C238.654 17.6165 239.041 17.9805 239.322 18.4386C239.602 18.8967 239.742 19.4062 239.742 19.9673C239.742 20.3686 239.67 20.761 239.524 21.1445C239.382 21.5245 239.133 21.9489 238.778 22.4176C238.427 22.8828 237.938 23.451 237.313 24.1222L234.863 26.7429V26.8281H239.934V28H233.052ZM245.82 28.1491C245.117 28.1491 244.49 28.0284 243.94 27.7869C243.393 27.5455 242.958 27.2099 242.635 26.7802C242.315 26.3469 242.141 25.8445 242.113 25.2727H243.455C243.484 25.6243 243.604 25.9279 243.817 26.1836C244.03 26.4357 244.309 26.631 244.654 26.7695C244.998 26.908 245.38 26.9773 245.799 26.9773C246.268 26.9773 246.683 26.8956 247.045 26.7322C247.408 26.5689 247.692 26.3416 247.898 26.0504C248.104 25.7592 248.207 25.4219 248.207 25.0384C248.207 24.6371 248.107 24.2837 247.908 23.9783C247.709 23.6694 247.418 23.4279 247.035 23.2539C246.651 23.0799 246.182 22.9929 245.628 22.9929H244.755V21.821H245.628C246.062 21.821 246.442 21.7429 246.768 21.5866C247.099 21.4304 247.356 21.2102 247.541 20.9261C247.729 20.642 247.823 20.3082 247.823 19.9247C247.823 19.5554 247.741 19.234 247.578 18.9606C247.415 18.6871 247.184 18.4741 246.886 18.3214C246.591 18.1687 246.243 18.0923 245.842 18.0923C245.465 18.0923 245.11 18.1616 244.776 18.3001C244.446 18.435 244.176 18.6321 243.967 18.8913C243.757 19.147 243.643 19.456 243.626 19.8182H242.347C242.369 19.2464 242.541 18.7457 242.864 18.3161C243.187 17.8828 243.61 17.5455 244.132 17.304C244.657 17.0625 245.234 16.9418 245.863 16.9418C246.538 16.9418 247.116 17.0785 247.599 17.3519C248.082 17.6218 248.453 17.9787 248.713 18.4226C248.972 18.8665 249.101 19.3459 249.101 19.8608C249.101 20.4751 248.94 20.9989 248.617 21.4322C248.297 21.8654 247.862 22.1655 247.312 22.3324V22.4176C248.001 22.5312 248.539 22.8242 248.926 23.2965C249.313 23.7653 249.506 24.3459 249.506 25.0384C249.506 25.6314 249.345 26.1641 249.022 26.6364C248.702 27.1051 248.265 27.4744 247.711 27.7443C247.157 28.0142 246.527 28.1491 245.82 28.1491Z" fill="white"/>
<path d="M-15 0H39C41.2091 0 43 1.79086 43 4V33C43 37.4183 39.4183 41 35 41H-15V0Z" fill="#EBEBEB"/>
<path d="M9.6571 21.4263H30.3714" stroke="#252525" stroke-width="3" stroke-linecap="round" stroke-linejoin="round"/>
<path d="M15.5325 27.8527L10.6751 23.7086C9.27126 22.5109 9.27126 20.3418 10.6751 19.1441L15.5325 15" stroke="#252525" stroke-width="3" stroke-linecap="round" stroke-linejoin="round"/>
<path d="M37 97.3333L69 124L53 137.333V84L69 97.3333L37 124" stroke="white" stroke-width="4" stroke-linecap="round" stroke-linejoin="round"/>
<path d="M112.446 87.5H110.949C110.86 87.0694 110.705 86.6911 110.484 86.3651C110.267 86.0391 110.001 85.7654 109.687 85.544C109.377 85.3187 109.033 85.1496 108.655 85.0369C108.277 84.9242 107.882 84.8679 107.472 84.8679C106.723 84.8679 106.045 85.0571 105.437 85.4354C104.833 85.8137 104.353 86.3711 103.994 87.1076C103.64 87.8441 103.463 88.7476 103.463 89.8182C103.463 90.8887 103.64 91.7923 103.994 92.5288C104.353 93.2653 104.833 93.8227 105.437 94.201C106.045 94.5793 106.723 94.7685 107.472 94.7685C107.882 94.7685 108.277 94.7121 108.655 94.5994C109.033 94.4867 109.377 94.3197 109.687 94.0984C110.001 93.873 110.267 93.5973 110.484 93.2713C110.705 92.9413 110.86 92.563 110.949 92.1364H112.446C112.333 92.7682 112.128 93.3337 111.83 93.8327C111.532 94.3318 111.162 94.7564 110.719 95.1065C110.277 95.4527 109.78 95.7163 109.228 95.8974C108.681 96.0785 108.095 96.169 107.472 96.169C106.417 96.169 105.479 95.9115 104.658 95.3963C103.837 94.8812 103.191 94.1487 102.721 93.1989C102.25 92.2491 102.014 91.1222 102.014 89.8182C102.014 88.5142 102.25 87.3873 102.721 86.4375C103.191 85.4877 103.837 84.7552 104.658 84.2401C105.479 83.7249 106.417 83.4673 107.472 83.4673C108.095 83.4673 108.681 83.5579 109.228 83.739C109.78 83.9201 110.277 84.1857 110.719 84.5359C111.162 84.882 111.532 85.3046 111.83 85.8036C112.128 86.2987 112.333 86.8641 112.446 87.5ZM118.439 96.1932C117.602 96.1932 116.868 95.994 116.236 95.5955C115.608 95.1971 115.117 94.6397 114.763 93.9233C114.413 93.2069 114.237 92.3698 114.237 91.4119C114.237 90.446 114.413 89.6029 114.763 88.8825C115.117 88.162 115.608 87.6026 116.236 87.2042C116.868 86.8058 117.602 86.6065 118.439 86.6065C119.276 86.6065 120.009 86.8058 120.637 87.2042C121.268 87.6026 121.759 88.162 122.11 88.8825C122.464 89.6029 122.641 90.446 122.641 91.4119C122.641 92.3698 122.464 93.2069 122.11 93.9233C121.759 94.6397 121.268 95.1971 120.637 95.5955C120.009 95.994 119.276 96.1932 118.439 96.1932ZM118.439 94.9134C119.075 94.9134 119.598 94.7504 120.009 94.4244C120.419 94.0984 120.723 93.6697 120.92 93.1385C121.118 92.6072 121.216 92.0317 121.216 91.4119C121.216 90.7921 121.118 90.2146 120.92 89.6793C120.723 89.1441 120.419 88.7114 120.009 88.3814C119.598 88.0514 119.075 87.8864 118.439 87.8864C117.803 87.8864 117.28 88.0514 116.87 88.3814C116.459 88.7114 116.155 89.1441 115.958 89.6793C115.761 90.2146 115.662 90.7921 115.662 91.4119C115.662 92.0317 115.761 92.6072 115.958 93.1385C116.155 93.6697 116.459 94.0984 116.87 94.4244C117.28 94.7504 117.803 94.9134 118.439 94.9134ZM126.24 90.4219V96H124.816V86.7273H126.192V88.1761H126.313C126.53 87.7053 126.86 87.3269 127.303 87.0412C127.746 86.7514 128.317 86.6065 129.017 86.6065C129.645 86.6065 130.195 86.7353 130.665 86.9929C131.136 87.2464 131.503 87.6328 131.764 88.152C132.026 88.6671 132.157 89.3191 132.157 90.108V96H130.732V90.2045C130.732 89.4761 130.543 88.9086 130.164 88.5021C129.786 88.0916 129.267 87.8864 128.607 87.8864C128.152 87.8864 127.746 87.985 127.387 88.1822C127.033 88.3794 126.754 88.6671 126.548 89.0455C126.343 89.4238 126.24 89.8826 126.24 90.4219ZM136.185 90.4219V96H134.76V86.7273H136.136V88.1761H136.257C136.475 87.7053 136.805 87.3269 137.247 87.0412C137.69 86.7514 138.261 86.6065 138.962 86.6065C139.59 86.6065 140.139 86.7353 140.61 86.9929C141.081 87.2464 141.447 87.6328 141.709 88.152C141.97 88.6671 142.101 89.3191 142.101 90.108V96H140.676V90.2045C140.676 89.4761 140.487 88.9086 140.109 88.5021C139.73 88.0916 139.211 87.8864 138.551 87.8864C138.096 87.8864 137.69 87.985 137.332 88.1822C136.978 88.3794 136.698 88.6671 136.493 89.0455C136.287 89.4238 136.185 89.8826 136.185 90.4219ZM148.592 96.1932C147.699 96.1932 146.928 95.996 146.28 95.6016C145.636 95.2031 145.139 94.6477 144.789 93.9354C144.443 93.219 144.27 92.3859 144.27 91.4361C144.27 90.4863 144.443 89.6491 144.789 88.9247C145.139 88.1963 145.626 87.6288 146.25 87.2223C146.878 86.8118 147.61 86.6065 148.447 86.6065C148.93 86.6065 149.407 86.687 149.878 86.848C150.349 87.009 150.778 87.2706 151.164 87.6328C151.55 87.991 151.858 88.4659 152.088 89.0575C152.317 89.6491 152.432 90.3776 152.432 91.2429V91.8466H145.284V90.6151H150.983C150.983 90.0919 150.878 89.625 150.669 89.2145C150.464 88.804 150.17 88.48 149.787 88.2425C149.409 88.0051 148.962 87.8864 148.447 87.8864C147.88 87.8864 147.389 88.0272 146.974 88.3089C146.564 88.5866 146.248 88.9489 146.026 89.3956C145.805 89.8423 145.694 90.3213 145.694 90.8324V91.6534C145.694 92.3537 145.815 92.9473 146.057 93.4343C146.302 93.9173 146.642 94.2855 147.077 94.5391C147.512 94.7886 148.017 94.9134 148.592 94.9134C148.966 94.9134 149.305 94.861 149.606 94.7564C149.912 94.6477 150.176 94.4867 150.397 94.2734C150.619 94.0561 150.79 93.7865 150.91 93.4645L152.287 93.8509C152.142 94.3177 151.898 94.7282 151.556 95.0824C151.214 95.4325 150.792 95.7062 150.289 95.9034C149.785 96.0966 149.22 96.1932 148.592 96.1932ZM158.366 96.1932C157.497 96.1932 156.748 95.9879 156.12 95.5774C155.492 95.1669 155.009 94.6014 154.671 93.881C154.333 93.1606 154.164 92.3376 154.164 91.4119C154.164 90.4702 154.337 89.6391 154.683 88.9187C155.034 88.1942 155.521 87.6288 156.144 87.2223C156.772 86.8118 157.505 86.6065 158.342 86.6065C158.994 86.6065 159.581 86.7273 160.105 86.9688C160.628 87.2102 161.056 87.5483 161.39 87.983C161.724 88.4176 161.932 88.9247 162.012 89.5043H160.588C160.479 89.0817 160.237 88.7074 159.863 88.3814C159.493 88.0514 158.994 87.8864 158.366 87.8864C157.811 87.8864 157.324 88.0312 156.905 88.321C156.49 88.6068 156.166 89.0112 155.933 89.5344C155.704 90.0536 155.589 90.6634 155.589 91.3636C155.589 92.08 155.702 92.7038 155.927 93.2351C156.156 93.7663 156.478 94.1789 156.893 94.4727C157.311 94.7665 157.802 94.9134 158.366 94.9134C158.736 94.9134 159.072 94.849 159.374 94.7202C159.676 94.5914 159.932 94.4062 160.141 94.1648C160.35 93.9233 160.499 93.6335 160.588 93.2955H162.012C161.932 93.8428 161.733 94.3358 161.415 94.7745C161.101 95.2092 160.684 95.5553 160.165 95.8129C159.65 96.0664 159.05 96.1932 158.366 96.1932ZM168.128 86.7273V87.9347H163.322V86.7273H168.128ZM164.723 84.5057H166.148V93.3438C166.148 93.7462 166.206 94.0481 166.323 94.2493C166.443 94.4465 166.596 94.5793 166.781 94.6477C166.971 94.7121 167.17 94.7443 167.379 94.7443C167.536 94.7443 167.665 94.7363 167.765 94.7202C167.866 94.7 167.947 94.6839 168.007 94.6719L168.297 95.9517C168.2 95.9879 168.065 96.0241 167.892 96.0604C167.719 96.1006 167.5 96.1207 167.234 96.1207C166.832 96.1207 166.437 96.0342 166.051 95.8612C165.669 95.6881 165.351 95.4245 165.097 95.0703C164.848 94.7161 164.723 94.2694 164.723 93.7301V84.5057ZM174.059 96.1932C173.165 96.1932 172.395 95.996 171.747 95.6016C171.103 95.2031 170.606 94.6477 170.256 93.9354C169.91 93.219 169.737 92.3859 169.737 91.4361C169.737 90.4863 169.91 89.6491 170.256 88.9247C170.606 88.1963 171.093 87.6288 171.717 87.2223C172.344 86.8118 173.077 86.6065 173.914 86.6065C174.397 86.6065 174.874 86.687 175.345 86.848C175.816 87.009 176.244 87.2706 176.631 87.6328C177.017 87.991 177.325 88.4659 177.554 89.0575C177.784 89.6491 177.898 90.3776 177.898 91.2429V91.8466H170.751V90.6151H176.45C176.45 90.0919 176.345 89.625 176.136 89.2145C175.93 88.804 175.637 88.48 175.254 88.2425C174.876 88.0051 174.429 87.8864 173.914 87.8864C173.347 87.8864 172.856 88.0272 172.441 88.3089C172.031 88.5866 171.715 88.9489 171.493 89.3956C171.272 89.8423 171.161 90.3213 171.161 90.8324V91.6534C171.161 92.3537 171.282 92.9473 171.523 93.4343C171.769 93.9173 172.109 94.2855 172.544 94.5391C172.978 94.7886 173.483 94.9134 174.059 94.9134C174.433 94.9134 174.771 94.861 175.073 94.7564C175.379 94.6477 175.643 94.4867 175.864 94.2734C176.085 94.0561 176.256 93.7865 176.377 93.4645L177.754 93.8509C177.609 94.3177 177.365 94.7282 177.023 95.0824C176.681 95.4325 176.258 95.7062 175.755 95.9034C175.252 96.0966 174.687 96.1932 174.059 96.1932ZM183.567 96.1932C182.794 96.1932 182.112 95.998 181.521 95.6076C180.929 95.2132 180.466 94.6578 180.132 93.9414C179.798 93.221 179.631 92.3698 179.631 91.3878C179.631 90.4138 179.798 89.5687 180.132 88.8523C180.466 88.1359 180.931 87.5825 181.527 87.1921C182.122 86.8017 182.81 86.6065 183.591 86.6065C184.195 86.6065 184.672 86.7071 185.022 86.9084C185.376 87.1056 185.646 87.331 185.831 87.5845C186.02 87.834 186.167 88.0393 186.272 88.2003H186.392V83.6364H187.817V96H186.441V94.5753H186.272C186.167 94.7443 186.018 94.9576 185.825 95.2152C185.632 95.4687 185.356 95.6961 184.998 95.8974C184.64 96.0946 184.163 96.1932 183.567 96.1932ZM183.76 94.9134C184.332 94.9134 184.815 94.7644 185.209 94.4666C185.604 94.1648 185.903 93.7482 186.109 93.217C186.314 92.6817 186.417 92.0639 186.417 91.3636C186.417 90.6714 186.316 90.0657 186.115 89.5465C185.913 89.0233 185.616 88.6168 185.221 88.3271C184.827 88.0333 184.34 87.8864 183.76 87.8864C183.157 87.8864 182.654 88.0413 182.251 88.3512C181.853 88.6571 181.553 89.0736 181.352 89.6009C181.154 90.1241 181.056 90.7116 181.056 91.3636C181.056 92.0237 181.156 92.6233 181.358 93.1626C181.563 93.6979 181.865 94.1245 182.263 94.4425C182.666 94.7564 183.165 94.9134 183.76 94.9134ZM199.438 86.7273V87.9347H194.633V86.7273H199.438ZM196.033 84.5057H197.458V93.3438C197.458 93.7462 197.516 94.0481 197.633 94.2493C197.754 94.4465 197.907 94.5793 198.092 94.6477C198.281 94.7121 198.48 94.7443 198.69 94.7443C198.847 94.7443 198.975 94.7363 199.076 94.7202C199.177 94.7 199.257 94.6839 199.317 94.6719L199.607 95.9517C199.511 95.9879 199.376 96.0241 199.203 96.0604C199.03 96.1006 198.81 96.1207 198.545 96.1207C198.142 96.1207 197.748 96.0342 197.362 95.8612C196.979 95.6881 196.661 95.4245 196.408 95.0703C196.158 94.7161 196.033 94.2694 196.033 93.7301V84.5057ZM205.249 96.1932C204.412 96.1932 203.677 95.994 203.045 95.5955C202.417 95.1971 201.926 94.6397 201.572 93.9233C201.222 93.2069 201.047 92.3698 201.047 91.4119C201.047 90.446 201.222 89.6029 201.572 88.8825C201.926 88.162 202.417 87.6026 203.045 87.2042C203.677 86.8058 204.412 86.6065 205.249 86.6065C206.086 86.6065 206.818 86.8058 207.446 87.2042C208.078 87.6026 208.569 88.162 208.919 88.8825C209.273 89.6029 209.45 90.446 209.45 91.4119C209.45 92.3698 209.273 93.2069 208.919 93.9233C208.569 94.6397 208.078 95.1971 207.446 95.5955C206.818 95.994 206.086 96.1932 205.249 96.1932ZM205.249 94.9134C205.885 94.9134 206.408 94.7504 206.818 94.4244C207.229 94.0984 207.533 93.6697 207.73 93.1385C207.927 92.6072 208.026 92.0317 208.026 91.4119C208.026 90.7921 207.927 90.2146 207.73 89.6793C207.533 89.1441 207.229 88.7114 206.818 88.3814C206.408 88.0514 205.885 87.8864 205.249 87.8864C204.613 87.8864 204.09 88.0514 203.679 88.3814C203.269 88.7114 202.965 89.1441 202.768 89.6793C202.57 90.2146 202.472 90.7921 202.472 91.4119C202.472 92.0317 202.57 92.6072 202.768 93.1385C202.965 93.6697 203.269 94.0984 203.679 94.4244C204.09 94.7504 204.613 94.9134 205.249 94.9134ZM212.664 96.0966C212.366 96.0966 212.11 95.9899 211.897 95.7766C211.684 95.5633 211.577 95.3078 211.577 95.0099C211.577 94.7121 211.684 94.4566 211.897 94.2433C212.11 94.0299 212.366 93.9233 212.664 93.9233C212.961 93.9233 213.217 94.0299 213.43 94.2433C213.644 94.4566 213.75 94.7121 213.75 95.0099C213.75 95.2071 213.7 95.3883 213.599 95.5533C213.503 95.7183 213.372 95.8511 213.207 95.9517C213.046 96.0483 212.865 96.0966 212.664 96.0966ZM212.664 89.2145C212.366 89.2145 212.11 89.1078 211.897 88.8945C211.684 88.6812 211.577 88.4257 211.577 88.1278C211.577 87.83 211.684 87.5745 211.897 87.3612C212.11 87.1478 212.366 87.0412 212.664 87.0412C212.961 87.0412 213.217 87.1478 213.43 87.3612C213.644 87.5745 213.75 87.83 213.75 88.1278C213.75 88.325 213.7 88.5062 213.599 88.6712C213.503 88.8362 213.372 88.969 213.207 89.0696C213.046 89.1662 212.865 89.2145 212.664 89.2145ZM102.264 120V105.455H105.339V111.868H105.531L110.766 105.455H114.452L109.054 111.967L114.516 120H110.837L106.852 114.02L105.339 115.866V120H102.264ZM119.107 120.206C118.411 120.206 117.791 120.085 117.246 119.844C116.702 119.598 116.271 119.235 115.954 118.757C115.641 118.274 115.485 117.673 115.485 116.953C115.485 116.347 115.596 115.838 115.819 115.426C116.041 115.014 116.344 114.683 116.728 114.432C117.112 114.181 117.547 113.991 118.035 113.864C118.527 113.736 119.043 113.646 119.583 113.594C120.218 113.527 120.729 113.466 121.117 113.409C121.505 113.348 121.787 113.258 121.962 113.139C122.138 113.021 122.225 112.846 122.225 112.614V112.571C122.225 112.121 122.083 111.773 121.799 111.527C121.52 111.281 121.122 111.158 120.606 111.158C120.061 111.158 119.628 111.278 119.306 111.52C118.984 111.757 118.771 112.055 118.667 112.415L115.869 112.188C116.011 111.525 116.29 110.952 116.707 110.469C117.123 109.981 117.661 109.607 118.319 109.347C118.982 109.081 119.749 108.949 120.62 108.949C121.226 108.949 121.806 109.02 122.36 109.162C122.919 109.304 123.414 109.524 123.844 109.822C124.28 110.121 124.623 110.504 124.874 110.973C125.125 111.437 125.251 111.993 125.251 112.642V120H122.381V118.487H122.296C122.121 118.828 121.887 119.129 121.593 119.389C121.299 119.645 120.947 119.846 120.535 119.993C120.123 120.135 119.647 120.206 119.107 120.206ZM119.974 118.118C120.419 118.118 120.812 118.03 121.153 117.855C121.494 117.675 121.761 117.434 121.955 117.131C122.149 116.828 122.246 116.484 122.246 116.101V114.943C122.152 115.005 122.022 115.062 121.856 115.114C121.695 115.161 121.513 115.206 121.309 115.249C121.105 115.286 120.902 115.322 120.698 115.355C120.495 115.384 120.31 115.41 120.144 115.433C119.789 115.485 119.479 115.568 119.214 115.682C118.949 115.795 118.743 115.949 118.596 116.143C118.449 116.333 118.376 116.57 118.376 116.854C118.376 117.266 118.525 117.58 118.823 117.798C119.126 118.011 119.51 118.118 119.974 118.118ZM130.624 113.693V120H127.598V109.091H130.482V111.016H130.609C130.851 110.381 131.256 109.879 131.824 109.51C132.392 109.136 133.081 108.949 133.891 108.949C134.648 108.949 135.309 109.115 135.872 109.446C136.436 109.777 136.874 110.251 137.186 110.866C137.499 111.477 137.655 112.206 137.655 113.054V120H134.629V113.594C134.634 112.926 134.464 112.405 134.118 112.031C133.772 111.652 133.296 111.463 132.69 111.463C132.283 111.463 131.923 111.551 131.611 111.726C131.303 111.901 131.062 112.157 130.886 112.493C130.716 112.824 130.628 113.224 130.624 113.693ZM143.15 120.206C142.454 120.206 141.834 120.085 141.289 119.844C140.745 119.598 140.314 119.235 139.997 118.757C139.684 118.274 139.528 117.673 139.528 116.953C139.528 116.347 139.639 115.838 139.862 115.426C140.084 115.014 140.387 114.683 140.771 114.432C141.154 114.181 141.59 113.991 142.078 113.864C142.57 113.736 143.086 113.646 143.626 113.594C144.261 113.527 144.772 113.466 145.16 113.409C145.548 113.348 145.83 113.258 146.005 113.139C146.181 113.021 146.268 112.846 146.268 112.614V112.571C146.268 112.121 146.126 111.773 145.842 111.527C145.563 111.281 145.165 111.158 144.649 111.158C144.104 111.158 143.671 111.278 143.349 111.52C143.027 111.757 142.814 112.055 142.71 112.415L139.912 112.188C140.054 111.525 140.333 110.952 140.75 110.469C141.166 109.981 141.704 109.607 142.362 109.347C143.025 109.081 143.792 108.949 144.663 108.949C145.269 108.949 145.849 109.02 146.403 109.162C146.962 109.304 147.457 109.524 147.887 109.822C148.323 110.121 148.666 110.504 148.917 110.973C149.168 111.437 149.294 111.993 149.294 112.642V120H146.424V118.487H146.339C146.164 118.828 145.93 119.129 145.636 119.389C145.342 119.645 144.99 119.846 144.578 119.993C144.166 120.135 143.69 120.206 143.15 120.206ZM144.017 118.118C144.462 118.118 144.855 118.03 145.196 117.855C145.537 117.675 145.804 117.434 145.998 117.131C146.192 116.828 146.289 116.484 146.289 116.101V114.943C146.195 115.005 146.065 115.062 145.899 115.114C145.738 115.161 145.556 115.206 145.352 115.249C145.148 115.286 144.945 115.322 144.741 115.355C144.538 115.384 144.353 115.41 144.187 115.433C143.832 115.485 143.522 115.568 143.257 115.682C142.992 115.795 142.786 115.949 142.639 116.143C142.492 116.333 142.419 116.57 142.419 116.854C142.419 117.266 142.568 117.58 142.866 117.798C143.169 118.011 143.553 118.118 144.017 118.118ZM154.667 113.693V120H151.641V109.091H154.525V111.016H154.652C154.894 110.381 155.299 109.879 155.867 109.51C156.435 109.136 157.124 108.949 157.934 108.949C158.691 108.949 159.352 109.115 159.915 109.446C160.479 109.777 160.917 110.251 161.229 110.866C161.542 111.477 161.698 112.206 161.698 113.054V120H158.672V113.594C158.677 112.926 158.507 112.405 158.161 112.031C157.815 111.652 157.339 111.463 156.733 111.463C156.326 111.463 155.966 111.551 155.654 111.726C155.346 111.901 155.105 112.157 154.929 112.493C154.759 112.824 154.671 113.224 154.667 113.693ZM169.054 120.213C167.932 120.213 166.966 119.986 166.156 119.531C165.351 119.072 164.731 118.423 164.295 117.585C163.86 116.742 163.642 115.746 163.642 114.595C163.642 113.473 163.86 112.488 164.295 111.641C164.731 110.793 165.344 110.133 166.135 109.659C166.93 109.186 167.863 108.949 168.933 108.949C169.653 108.949 170.323 109.065 170.943 109.297C171.568 109.524 172.113 109.867 172.577 110.327C173.045 110.786 173.41 111.364 173.67 112.06C173.931 112.751 174.061 113.561 174.061 114.489V115.32H164.849V113.445H171.213C171.213 113.009 171.118 112.623 170.929 112.287C170.74 111.951 170.477 111.688 170.141 111.499C169.809 111.304 169.423 111.207 168.983 111.207C168.524 111.207 168.116 111.314 167.761 111.527C167.411 111.735 167.136 112.017 166.938 112.372C166.739 112.723 166.637 113.113 166.632 113.544V115.327C166.632 115.866 166.732 116.333 166.93 116.726C167.134 117.119 167.42 117.422 167.79 117.635C168.159 117.848 168.597 117.955 169.104 117.955C169.44 117.955 169.748 117.907 170.027 117.812C170.306 117.718 170.545 117.576 170.744 117.386C170.943 117.197 171.095 116.965 171.199 116.69L173.997 116.875C173.855 117.547 173.564 118.134 173.124 118.636C172.688 119.134 172.125 119.522 171.433 119.801C170.747 120.076 169.954 120.213 169.054 120.213ZM179.061 105.455V120H176.036V105.455H179.061ZM186.414 120.213C185.31 120.213 184.356 119.979 183.551 119.51C182.751 119.036 182.133 118.378 181.698 117.536C181.262 116.688 181.044 115.705 181.044 114.588C181.044 113.461 181.262 112.476 181.698 111.634C182.133 110.786 182.751 110.128 183.551 109.659C184.356 109.186 185.31 108.949 186.414 108.949C187.517 108.949 188.469 109.186 189.269 109.659C190.074 110.128 190.694 110.786 191.13 111.634C191.565 112.476 191.783 113.461 191.783 114.588C191.783 115.705 191.565 116.688 191.13 117.536C190.694 118.378 190.074 119.036 189.269 119.51C188.469 119.979 187.517 120.213 186.414 120.213ZM186.428 117.869C186.93 117.869 187.349 117.727 187.685 117.443C188.021 117.154 188.275 116.761 188.445 116.264C188.62 115.767 188.708 115.201 188.708 114.567C188.708 113.932 188.62 113.366 188.445 112.869C188.275 112.372 188.021 111.979 187.685 111.69C187.349 111.402 186.93 111.257 186.428 111.257C185.921 111.257 185.495 111.402 185.15 111.69C184.809 111.979 184.551 112.372 184.375 112.869C184.205 113.366 184.12 113.932 184.12 114.567C184.12 115.201 184.205 115.767 184.375 116.264C184.551 116.761 184.809 117.154 185.15 117.443C185.495 117.727 185.921 117.869 186.428 117.869ZM196.286 105.455V106.989C196.286 107.424 196.201 107.869 196.03 108.324C195.864 108.774 195.642 109.2 195.363 109.602C195.083 110 194.778 110.339 194.446 110.618L193.111 109.83C193.348 109.455 193.556 109.041 193.736 108.587C193.921 108.132 194.013 107.604 194.013 107.003V105.455H196.286ZM206.011 112.202L203.241 112.372C203.193 112.135 203.092 111.922 202.935 111.733C202.779 111.539 202.573 111.385 202.317 111.271C202.067 111.153 201.766 111.094 201.415 111.094C200.947 111.094 200.551 111.193 200.229 111.392C199.907 111.586 199.746 111.847 199.746 112.173C199.746 112.434 199.851 112.654 200.059 112.834C200.267 113.014 200.625 113.158 201.131 113.267L203.106 113.665C204.166 113.883 204.957 114.233 205.478 114.716C205.999 115.199 206.259 115.833 206.259 116.619C206.259 117.334 206.049 117.962 205.627 118.501C205.21 119.041 204.638 119.463 203.908 119.766C203.184 120.064 202.348 120.213 201.401 120.213C199.957 120.213 198.807 119.912 197.95 119.311C197.097 118.705 196.598 117.881 196.451 116.839L199.427 116.683C199.517 117.124 199.735 117.46 200.08 117.692C200.426 117.919 200.869 118.033 201.408 118.033C201.939 118.033 202.365 117.931 202.687 117.727C203.013 117.519 203.179 117.251 203.184 116.925C203.179 116.65 203.063 116.425 202.836 116.25C202.609 116.07 202.258 115.933 201.785 115.838L199.896 115.462C198.83 115.249 198.037 114.879 197.516 114.354C197 113.828 196.742 113.158 196.742 112.344C196.742 111.643 196.932 111.039 197.31 110.533C197.694 110.026 198.231 109.635 198.923 109.361C199.619 109.086 200.433 108.949 201.366 108.949C202.744 108.949 203.828 109.24 204.619 109.822C205.414 110.405 205.878 111.198 206.011 112.202ZM102.264 144V129.455H108.003C109.106 129.455 110.046 129.665 110.822 130.087C111.599 130.503 112.191 131.083 112.598 131.827C113.01 132.565 113.216 133.418 113.216 134.384C113.216 135.349 113.008 136.202 112.591 136.94C112.174 137.679 111.571 138.254 110.78 138.666C109.994 139.078 109.042 139.284 107.925 139.284H104.267V136.82H107.428C108.019 136.82 108.507 136.718 108.891 136.514C109.279 136.306 109.568 136.019 109.757 135.655C109.951 135.286 110.048 134.862 110.048 134.384C110.048 133.901 109.951 133.479 109.757 133.119C109.568 132.755 109.279 132.473 108.891 132.274C108.502 132.071 108.01 131.969 107.413 131.969H105.339V144H102.264ZM118.182 137.693V144H115.157V129.455H118.097V135.016H118.225C118.471 134.372 118.869 133.867 119.418 133.503C119.967 133.134 120.656 132.949 121.485 132.949C122.242 132.949 122.903 133.115 123.466 133.446C124.034 133.773 124.475 134.244 124.787 134.859C125.105 135.47 125.261 136.202 125.256 137.054V144H122.23V137.594C122.235 136.921 122.065 136.398 121.719 136.024C121.378 135.65 120.9 135.463 120.284 135.463C119.873 135.463 119.508 135.551 119.191 135.726C118.878 135.901 118.632 136.157 118.452 136.493C118.277 136.824 118.187 137.224 118.182 137.693ZM132.566 144.213C131.463 144.213 130.509 143.979 129.704 143.51C128.904 143.036 128.286 142.378 127.85 141.536C127.415 140.688 127.197 139.705 127.197 138.588C127.197 137.461 127.415 136.476 127.85 135.634C128.286 134.786 128.904 134.128 129.704 133.659C130.509 133.186 131.463 132.949 132.566 132.949C133.669 132.949 134.621 133.186 135.421 133.659C136.226 134.128 136.846 134.786 137.282 135.634C137.718 136.476 137.935 137.461 137.935 138.588C137.935 139.705 137.718 140.688 137.282 141.536C136.846 142.378 136.226 143.036 135.421 143.51C134.621 143.979 133.669 144.213 132.566 144.213ZM132.58 141.869C133.082 141.869 133.501 141.727 133.837 141.443C134.174 141.154 134.427 140.761 134.597 140.264C134.772 139.767 134.86 139.201 134.86 138.567C134.86 137.932 134.772 137.366 134.597 136.869C134.427 136.372 134.174 135.979 133.837 135.69C133.501 135.402 133.082 135.257 132.58 135.257C132.074 135.257 131.647 135.402 131.302 135.69C130.961 135.979 130.703 136.372 130.528 136.869C130.357 137.366 130.272 137.932 130.272 138.567C130.272 139.201 130.357 139.767 130.528 140.264C130.703 140.761 130.961 141.154 131.302 141.443C131.647 141.727 132.074 141.869 132.58 141.869ZM142.928 137.693V144H139.903V133.091H142.786V135.016H142.914C143.156 134.381 143.56 133.879 144.129 133.51C144.697 133.136 145.386 132.949 146.195 132.949C146.953 132.949 147.613 133.115 148.177 133.446C148.74 133.777 149.178 134.251 149.491 134.866C149.803 135.477 149.96 136.206 149.96 137.054V144H146.934V137.594C146.939 136.926 146.768 136.405 146.423 136.031C146.077 135.652 145.601 135.463 144.995 135.463C144.588 135.463 144.228 135.551 143.915 135.726C143.608 135.901 143.366 136.157 143.191 136.493C143.021 136.824 142.933 137.224 142.928 137.693ZM157.316 144.213C156.194 144.213 155.228 143.986 154.418 143.531C153.613 143.072 152.993 142.423 152.557 141.585C152.122 140.742 151.904 139.746 151.904 138.595C151.904 137.473 152.122 136.488 152.557 135.641C152.993 134.793 153.606 134.133 154.397 133.659C155.192 133.186 156.125 132.949 157.195 132.949C157.915 132.949 158.585 133.065 159.205 133.297C159.83 133.524 160.374 133.867 160.838 134.327C161.307 134.786 161.672 135.364 161.932 136.06C162.193 136.751 162.323 137.561 162.323 138.489V139.32H153.111V137.445H159.475C159.475 137.009 159.38 136.623 159.191 136.287C159.001 135.951 158.739 135.688 158.402 135.499C158.071 135.304 157.685 135.207 157.245 135.207C156.785 135.207 156.378 135.314 156.023 135.527C155.673 135.735 155.398 136.017 155.199 136.372C155 136.723 154.899 137.113 154.894 137.544V139.327C154.894 139.866 154.993 140.333 155.192 140.726C155.396 141.119 155.682 141.422 156.051 141.635C156.421 141.848 156.859 141.955 157.365 141.955C157.702 141.955 158.009 141.907 158.289 141.812C158.568 141.718 158.807 141.576 159.006 141.386C159.205 141.197 159.356 140.965 159.461 140.69L162.259 140.875C162.117 141.547 161.826 142.134 161.385 142.636C160.95 143.134 160.386 143.522 159.695 143.801C159.008 144.076 158.215 144.213 157.316 144.213Z" fill="white"/>
<path d="M77.4138 44V25.0909H84.0246C85.3418 25.0909 86.4282 25.3187 87.2838 25.7741C88.1394 26.2235 88.7765 26.8298 89.195 27.593C89.6136 28.3501 89.8229 29.1903 89.8229 30.1136C89.8229 30.9261 89.6782 31.5971 89.3889 32.1264C89.1058 32.6558 88.7303 33.0743 88.2625 33.3821C87.8009 33.6899 87.2992 33.9176 86.7575 34.0653V34.25C87.3361 34.2869 87.9178 34.4901 88.5026 34.8594C89.0873 35.2287 89.5767 35.758 89.9706 36.4474C90.3646 37.1368 90.5615 37.9801 90.5615 38.9773C90.5615 39.9252 90.3461 40.7777 89.9152 41.5348C89.4843 42.2919 88.8042 42.892 87.8747 43.3352C86.9453 43.7784 85.7358 44 84.2462 44H77.4138ZM79.7036 41.9688H84.2462C85.7419 41.9688 86.8037 41.6795 87.4316 41.1009C88.0655 40.5161 88.3825 39.8082 88.3825 38.9773C88.3825 38.3371 88.2194 37.7462 87.8932 37.2045C87.567 36.6567 87.1022 36.2197 86.499 35.8935C85.8958 35.5611 85.1818 35.3949 84.357 35.3949H79.7036V41.9688ZM79.7036 33.4006H83.9507C84.6401 33.4006 85.2618 33.2652 85.8158 32.9943C86.3759 32.7235 86.8191 32.3419 87.1453 31.8494C87.4777 31.357 87.6439 30.7784 87.6439 30.1136C87.6439 29.2827 87.3546 28.5779 86.776 27.9993C86.1974 27.4145 85.2803 27.1222 84.0246 27.1222H79.7036V33.4006ZM96.2075 25.0909V44H94.0285V25.0909H96.2075ZM109.136 38.2017V29.8182H111.315V44H109.136V41.5994H108.988C108.656 42.3196 108.139 42.9321 107.437 43.4368C106.735 43.9354 105.849 44.1847 104.778 44.1847C103.892 44.1847 103.104 43.9908 102.414 43.603C101.725 43.209 101.183 42.6181 100.789 41.8303C100.395 41.0362 100.198 40.036 100.198 38.8295V29.8182H102.377V38.6818C102.377 39.7159 102.667 40.5407 103.245 41.1562C103.83 41.7718 104.575 42.0795 105.48 42.0795C106.021 42.0795 106.572 41.9411 107.132 41.6641C107.699 41.3871 108.173 40.9624 108.554 40.3899C108.942 39.8175 109.136 39.0881 109.136 38.2017ZM121.252 44.2955C119.885 44.2955 118.707 43.9938 117.716 43.3906C116.731 42.7812 115.971 41.9318 115.435 40.8423C114.906 39.7467 114.641 38.4725 114.641 37.0199C114.641 35.5672 114.906 34.2869 115.435 33.179C115.971 32.0649 116.715 31.197 117.669 30.5753C118.63 29.9474 119.75 29.6335 121.03 29.6335C121.769 29.6335 122.498 29.7566 123.218 30.0028C123.939 30.2491 124.594 30.6491 125.185 31.2031C125.776 31.7509 126.247 32.4773 126.598 33.3821C126.949 34.2869 127.124 35.401 127.124 36.7244V37.6477H116.192V35.7642H124.908C124.908 34.964 124.748 34.25 124.428 33.6222C124.114 32.9943 123.665 32.4988 123.08 32.1357C122.501 31.7725 121.818 31.5909 121.03 31.5909C120.162 31.5909 119.411 31.8063 118.777 32.2372C118.15 32.6619 117.666 33.2159 117.328 33.8991C116.989 34.5824 116.82 35.3149 116.82 36.0966V37.3523C116.82 38.4233 117.005 39.3312 117.374 40.076C117.749 40.8146 118.27 41.3778 118.934 41.7656C119.599 42.1473 120.372 42.3381 121.252 42.3381C121.824 42.3381 122.341 42.258 122.803 42.098C123.271 41.9318 123.674 41.6856 124.013 41.3594C124.351 41.027 124.613 40.6146 124.797 40.1222L126.902 40.7131C126.681 41.4271 126.308 42.0549 125.785 42.5966C125.262 43.1321 124.616 43.5507 123.846 43.8523C123.077 44.1477 122.212 44.2955 121.252 44.2955ZM136.606 29.8182V31.6648H129.257V29.8182H136.606ZM131.399 26.4205H133.578V39.9375C133.578 40.553 133.667 41.0147 133.846 41.3224C134.03 41.6241 134.264 41.8272 134.547 41.9318C134.837 42.0303 135.141 42.0795 135.461 42.0795C135.701 42.0795 135.898 42.0672 136.052 42.0426C136.206 42.0118 136.329 41.9872 136.422 41.9688L136.865 43.9261C136.717 43.9815 136.511 44.0369 136.246 44.0923C135.982 44.1539 135.646 44.1847 135.24 44.1847C134.624 44.1847 134.021 44.0523 133.43 43.7876C132.845 43.523 132.359 43.1198 131.971 42.5781C131.59 42.0365 131.399 41.3532 131.399 40.5284V26.4205ZM145.493 44.2955C144.213 44.2955 143.089 43.9908 142.123 43.3814C141.163 42.772 140.412 41.9195 139.87 40.8239C139.335 39.7282 139.067 38.4479 139.067 36.983C139.067 35.5057 139.335 34.2161 139.87 33.1143C140.412 32.0125 141.163 31.157 142.123 30.5476C143.089 29.9382 144.213 29.6335 145.493 29.6335C146.773 29.6335 147.894 29.9382 148.854 30.5476C149.82 31.157 150.571 32.0125 151.107 33.1143C151.648 34.2161 151.919 35.5057 151.919 36.983C151.919 38.4479 151.648 39.7282 151.107 40.8239C150.571 41.9195 149.82 42.772 148.854 43.3814C147.894 43.9908 146.773 44.2955 145.493 44.2955ZM145.493 42.3381C146.466 42.3381 147.266 42.0888 147.894 41.5902C148.521 41.0916 148.986 40.4361 149.288 39.6236C149.589 38.8111 149.74 37.9309 149.74 36.983C149.74 36.035 149.589 35.1518 149.288 34.3331C148.986 33.5144 148.521 32.8527 147.894 32.348C147.266 31.8433 146.466 31.5909 145.493 31.5909C144.52 31.5909 143.72 31.8433 143.092 32.348C142.465 32.8527 142 33.5144 141.698 34.3331C141.397 35.1518 141.246 36.035 141.246 36.983C141.246 37.9309 141.397 38.8111 141.698 39.6236C142 40.4361 142.465 41.0916 143.092 41.5902C143.72 42.0888 144.52 42.3381 145.493 42.3381ZM161.007 44.2955C159.726 44.2955 158.603 43.9908 157.637 43.3814C156.676 42.772 155.925 41.9195 155.384 40.8239C154.848 39.7282 154.581 38.4479 154.581 36.983C154.581 35.5057 154.848 34.2161 155.384 33.1143C155.925 32.0125 156.676 31.157 157.637 30.5476C158.603 29.9382 159.726 29.6335 161.007 29.6335C162.287 29.6335 163.407 29.9382 164.367 30.5476C165.334 31.157 166.085 32.0125 166.62 33.1143C167.162 34.2161 167.433 35.5057 167.433 36.983C167.433 38.4479 167.162 39.7282 166.62 40.8239C166.085 41.9195 165.334 42.772 164.367 43.3814C163.407 43.9908 162.287 44.2955 161.007 44.2955ZM161.007 42.3381C161.979 42.3381 162.779 42.0888 163.407 41.5902C164.035 41.0916 164.5 40.4361 164.801 39.6236C165.103 38.8111 165.254 37.9309 165.254 36.983C165.254 36.035 165.103 35.1518 164.801 34.3331C164.5 33.5144 164.035 32.8527 163.407 32.348C162.779 31.8433 161.979 31.5909 161.007 31.5909C160.034 31.5909 159.234 31.8433 158.606 32.348C157.978 32.8527 157.514 33.5144 157.212 34.3331C156.91 35.1518 156.759 36.035 156.759 36.983C156.759 37.9309 156.91 38.8111 157.212 39.6236C157.514 40.4361 157.978 41.0916 158.606 41.5902C159.234 42.0888 160.034 42.3381 161.007 42.3381ZM176.927 29.8182V31.6648H169.577V29.8182H176.927ZM171.719 26.4205H173.898V39.9375C173.898 40.553 173.987 41.0147 174.166 41.3224C174.351 41.6241 174.584 41.8272 174.868 41.9318C175.157 42.0303 175.462 42.0795 175.782 42.0795C176.022 42.0795 176.219 42.0672 176.373 42.0426C176.526 42.0118 176.65 41.9872 176.742 41.9688L177.185 43.9261C177.037 43.9815 176.831 44.0369 176.566 44.0923C176.302 44.1539 175.966 44.1847 175.56 44.1847C174.945 44.1847 174.341 44.0523 173.75 43.7876C173.166 43.523 172.679 43.1198 172.292 42.5781C171.91 42.0365 171.719 41.3532 171.719 40.5284V26.4205ZM182.688 35.4688V44H180.509V25.0909H182.688V32.0341H182.873C183.205 31.3016 183.704 30.7199 184.368 30.2891C185.039 29.852 185.932 29.6335 187.046 29.6335C188.012 29.6335 188.859 29.8274 189.585 30.2152C190.311 30.5968 190.874 31.1847 191.275 31.9787C191.681 32.7666 191.884 33.7699 191.884 34.9886V44H189.705V35.1364C189.705 34.0099 189.413 33.139 188.828 32.5234C188.249 31.9018 187.446 31.5909 186.418 31.5909C185.704 31.5909 185.064 31.7417 184.498 32.0433C183.937 32.3449 183.494 32.785 183.168 33.3636C182.848 33.9422 182.688 34.6439 182.688 35.4688Z" fill="white"/>
</g>
<rect x="0.5" y="0.5" width="269" height="269" rx="25.5" stroke="white"/>
<defs>
<clipPath id="clip0_211_1292">
<rect width="270" height="270" rx="26" fill="white"/>
</clipPath>
</defs>
</svg>
