<svg width="270" height="270" viewBox="0 0 270 270" fill="none" xmlns="http://www.w3.org/2000/svg">
<g clip-path="url(#clip0_211_1664)">
<rect width="270" height="270" rx="26" fill="#252525"/>
<path d="M21.35 174V164.16H24.275C24.945 164.16 25.53 164.24 26.03 164.4C26.54 164.56 26.935 164.815 27.215 165.165C27.505 165.515 27.65 165.98 27.65 166.56C27.65 167.05 27.525 167.495 27.275 167.895C27.035 168.285 26.68 168.555 26.21 168.705V168.765C26.8 168.875 27.28 169.125 27.65 169.515C28.03 169.905 28.22 170.44 28.22 171.12C28.22 171.76 28.06 172.295 27.74 172.725C27.43 173.155 26.995 173.475 26.435 173.685C25.875 173.895 25.225 174 24.485 174H21.35ZM22.595 168.345H24.05C24.89 168.345 25.495 168.2 25.865 167.91C26.235 167.62 26.42 167.225 26.42 166.725C26.42 166.155 26.225 165.75 25.835 165.51C25.455 165.27 24.88 165.15 24.11 165.15H22.595V168.345ZM22.595 173.01H24.305C25.155 173.01 25.815 172.855 26.285 172.545C26.755 172.225 26.99 171.735 26.99 171.075C26.99 170.465 26.755 170.02 26.285 169.74C25.825 169.45 25.165 169.305 24.305 169.305H22.595V173.01ZM34.5484 174.18C33.7284 174.18 32.9984 173.97 32.3584 173.55C31.7284 173.13 31.2334 172.535 30.8734 171.765C30.5234 170.995 30.3484 170.085 30.3484 169.035C30.3484 167.985 30.5234 167.085 30.8734 166.335C31.2334 165.575 31.7284 164.995 32.3584 164.595C32.9984 164.185 33.7284 163.98 34.5484 163.98C35.3784 163.98 36.1084 164.185 36.7384 164.595C37.3684 164.995 37.8634 165.575 38.2234 166.335C38.5834 167.085 38.7634 167.985 38.7634 169.035C38.7634 170.085 38.5834 170.995 38.2234 171.765C37.8634 172.535 37.3684 173.13 36.7384 173.55C36.1084 173.97 35.3784 174.18 34.5484 174.18ZM34.5484 173.085C35.1384 173.085 35.6484 172.92 36.0784 172.59C36.5184 172.25 36.8584 171.78 37.0984 171.18C37.3384 170.57 37.4584 169.855 37.4584 169.035C37.4584 167.815 37.1934 166.85 36.6634 166.14C36.1334 165.43 35.4284 165.075 34.5484 165.075C33.6684 165.075 32.9634 165.43 32.4334 166.14C31.9034 166.85 31.6384 167.815 31.6384 169.035C31.6384 169.855 31.7584 170.57 31.9984 171.18C32.2384 171.78 32.5784 172.25 33.0184 172.59C33.4584 172.92 33.9684 173.085 34.5484 173.085ZM41.6293 174V164.16H44.0893C45.6093 164.16 46.7643 164.585 47.5543 165.435C48.3443 166.275 48.7393 167.475 48.7393 169.035C48.7393 170.605 48.3443 171.825 47.5543 172.695C46.7743 173.565 45.6393 174 44.1493 174H41.6293ZM42.8743 172.98H43.9993C45.1493 172.98 46.0093 172.635 46.5793 171.945C47.1593 171.245 47.4493 170.275 47.4493 169.035C47.4493 167.795 47.1593 166.845 46.5793 166.185C46.0093 165.515 45.1493 165.18 43.9993 165.18H42.8743V172.98ZM52.9048 174V170.19L49.9498 164.16H51.2848L52.5598 166.935C52.7198 167.295 52.8748 167.65 53.0248 168C53.1848 168.35 53.3448 168.71 53.5048 169.08H53.5648C53.7348 168.71 53.9048 168.35 54.0748 168C54.2448 167.65 54.4048 167.295 54.5548 166.935L55.8148 164.16H57.1198L54.1648 170.19V174H52.9048ZM62.8636 174.18C62.0036 174.18 61.2386 173.98 60.5686 173.58C59.8986 173.17 59.3736 172.585 58.9936 171.825C58.6136 171.065 58.4236 170.15 58.4236 169.08C58.4236 168.02 58.6186 167.11 59.0086 166.35C59.3986 165.59 59.9336 165.005 60.6136 164.595C61.2936 164.185 62.0686 163.98 62.9386 163.98C63.6186 163.98 64.1886 164.11 64.6486 164.37C65.1186 164.62 65.4936 164.895 65.7736 165.195L65.0836 166.005C64.8336 165.745 64.5436 165.525 64.2136 165.345C63.8836 165.165 63.4686 165.075 62.9686 165.075C62.3086 165.075 61.7336 165.24 61.2436 165.57C60.7536 165.89 60.3736 166.345 60.1036 166.935C59.8436 167.525 59.7136 168.23 59.7136 169.05C59.7136 170.29 59.9936 171.275 60.5536 172.005C61.1236 172.725 61.9336 173.085 62.9836 173.085C63.3336 173.085 63.6686 173.035 63.9886 172.935C64.3086 172.825 64.5636 172.68 64.7536 172.5V169.935H62.6686V168.9H65.8936V173.04C65.5836 173.37 65.1636 173.645 64.6336 173.865C64.1136 174.075 63.5236 174.18 62.8636 174.18ZM72.4964 174.18C71.8264 174.18 71.2214 174.045 70.6814 173.775C70.1514 173.505 69.7314 173.06 69.4214 172.44C69.1114 171.82 68.9564 170.985 68.9564 169.935V164.16H70.2014V169.965C70.2014 170.755 70.3014 171.38 70.5014 171.84C70.7114 172.29 70.9864 172.61 71.3264 172.8C71.6764 172.99 72.0664 173.085 72.4964 173.085C72.9364 173.085 73.3314 172.99 73.6814 172.8C74.0314 172.61 74.3064 172.29 74.5064 171.84C74.7164 171.38 74.8214 170.755 74.8214 169.965V164.16H76.0214V169.935C76.0214 170.985 75.8664 171.82 75.5564 172.44C75.2464 173.06 74.8264 173.505 74.2964 173.775C73.7664 174.045 73.1664 174.18 72.4964 174.18ZM80.88 168.495L80.415 169.995H83.37L82.905 168.495C82.725 167.945 82.555 167.4 82.395 166.86C82.235 166.31 82.075 165.75 81.915 165.18H81.855C81.705 165.75 81.55 166.31 81.39 166.86C81.23 167.4 81.06 167.945 80.88 168.495ZM77.88 174L81.21 164.16H82.62L85.95 174H84.615L83.685 171H80.1L79.155 174H77.88ZM88.0941 174V164.16H91.1691C91.8391 164.16 92.4341 164.25 92.9541 164.43C93.4741 164.6 93.8791 164.89 94.1691 165.3C94.4691 165.7 94.6191 166.24 94.6191 166.92C94.6191 167.68 94.4191 168.295 94.0191 168.765C93.6191 169.225 93.0791 169.54 92.3991 169.71L94.9041 174H93.4941L91.1241 169.845H89.3391V174H88.0941ZM89.3391 168.825H90.9891C91.7591 168.825 92.3491 168.67 92.7591 168.36C93.1691 168.04 93.3741 167.56 93.3741 166.92C93.3741 166.27 93.1691 165.815 92.7591 165.555C92.3491 165.295 91.7591 165.165 90.9891 165.165H89.3391V168.825ZM97.3842 174V164.16H99.8442C101.364 164.16 102.519 164.585 103.309 165.435C104.099 166.275 104.494 167.475 104.494 169.035C104.494 170.605 104.099 171.825 103.309 172.695C102.529 173.565 101.394 174 99.9042 174H97.3842ZM98.6292 172.98H99.7542C100.904 172.98 101.764 172.635 102.334 171.945C102.914 171.245 103.204 170.275 103.204 169.035C103.204 167.795 102.914 166.845 102.334 166.185C101.764 165.515 100.904 165.18 99.7542 165.18H98.6292V172.98Z" fill="#B084CC"/>
<path d="M21.08 193V183.25H24.59C25.27 183.25 25.89 183.32 26.45 183.46C27.01 183.6 27.455 183.845 27.785 184.195C28.115 184.545 28.28 185.04 28.28 185.68C28.28 186.1 28.17 186.52 27.95 186.94C27.73 187.35 27.43 187.63 27.05 187.78V187.84C27.52 187.97 27.915 188.22 28.235 188.59C28.565 188.96 28.73 189.47 28.73 190.12C28.73 190.79 28.555 191.34 28.205 191.77C27.855 192.19 27.39 192.5 26.81 192.7C26.23 192.9 25.59 193 24.89 193H21.08ZM23.66 187.06H24.53C24.95 187.06 25.26 186.97 25.46 186.79C25.66 186.61 25.76 186.37 25.76 186.07C25.76 185.77 25.66 185.555 25.46 185.425C25.26 185.295 24.95 185.23 24.53 185.23H23.66V187.06ZM23.66 191.02H24.71C25.71 191.02 26.21 190.66 26.21 189.94C26.21 189.58 26.085 189.325 25.835 189.175C25.595 189.025 25.22 188.95 24.71 188.95H23.66V191.02ZM32.5146 193V183.25H38.8146V185.41H35.0946V186.94H38.2746V189.1H35.0946V190.84H38.9646V193H32.5146ZM44.8095 193V189.64L41.8695 183.25H44.6295L45.3495 185.29C45.4695 185.66 45.5895 186.02 45.7095 186.37C45.8295 186.72 45.9545 187.085 46.0845 187.465H46.1445C46.2745 187.085 46.3995 186.72 46.5195 186.37C46.6495 186.02 46.7795 185.66 46.9095 185.29L47.6295 183.25H50.3295L47.3895 189.64V193H44.8095ZM57.3257 193.18C56.4257 193.18 55.6357 192.98 54.9557 192.58C54.2757 192.17 53.7457 191.585 53.3657 190.825C52.9857 190.065 52.7957 189.15 52.7957 188.08C52.7957 187.01 52.9857 186.105 53.3657 185.365C53.7457 184.615 54.2757 184.045 54.9557 183.655C55.6357 183.265 56.4257 183.07 57.3257 183.07C58.2257 183.07 59.0157 183.265 59.6957 183.655C60.3757 184.045 60.9057 184.615 61.2857 185.365C61.6657 186.105 61.8557 187.01 61.8557 188.08C61.8557 189.15 61.6657 190.065 61.2857 190.825C60.9057 191.585 60.3757 192.17 59.6957 192.58C59.0157 192.98 58.2257 193.18 57.3257 193.18ZM57.3257 190.96C57.9157 190.96 58.3757 190.7 58.7057 190.18C59.0457 189.66 59.2157 188.96 59.2157 188.08C59.2157 187.19 59.0457 186.505 58.7057 186.025C58.3757 185.535 57.9157 185.29 57.3257 185.29C56.7457 185.29 56.2857 185.535 55.9457 186.025C55.6057 186.505 55.4357 187.19 55.4357 188.08C55.4357 188.96 55.6057 189.66 55.9457 190.18C56.2857 190.7 56.7457 190.96 57.3257 190.96ZM65.8515 193V183.25H68.4915L70.6515 187.6L71.5815 189.79H71.6415C71.5815 189.26 71.5115 188.66 71.4315 187.99C71.3515 187.31 71.3115 186.67 71.3115 186.07V183.25H73.7715V193H71.1315L68.9715 188.635L68.0415 186.46H67.9815C68.0415 187.01 68.1115 187.62 68.1915 188.29C68.2715 188.95 68.3115 189.58 68.3115 190.18V193H65.8515ZM82.4096 193.18C81.5796 193.18 80.8096 193 80.0996 192.64C79.3996 192.27 78.8346 191.715 78.4046 190.975C77.9746 190.235 77.7596 189.31 77.7596 188.2C77.7596 187.38 77.8846 186.655 78.1346 186.025C78.3946 185.385 78.7446 184.845 79.1846 184.405C79.6346 183.965 80.1396 183.635 80.6996 183.415C81.2696 183.185 81.8596 183.07 82.4696 183.07C83.1196 183.07 83.6996 183.2 84.2096 183.46C84.7296 183.71 85.1596 184.01 85.4996 184.36L84.1496 186.01C83.9096 185.8 83.6596 185.63 83.3996 185.5C83.1496 185.36 82.8596 185.29 82.5296 185.29C82.1496 185.29 81.7946 185.405 81.4646 185.635C81.1446 185.855 80.8846 186.175 80.6846 186.595C80.4946 187.015 80.3996 187.52 80.3996 188.11C80.3996 189.02 80.5896 189.725 80.9696 190.225C81.3596 190.715 81.8696 190.96 82.4996 190.96C82.8796 190.96 83.2146 190.875 83.5046 190.705C83.8046 190.535 84.0596 190.34 84.2696 190.12L85.6196 191.74C85.2096 192.22 84.7296 192.58 84.1796 192.82C83.6296 193.06 83.0396 193.18 82.4096 193.18ZM89.2187 193V183.25H95.5187V185.41H91.7987V186.94H94.9787V189.1H91.7987V190.84H95.6687V193H89.2187Z" fill="#B084CC"/>
<path d="M23.39 220V211.21H20.42V210.16H27.62V211.21H24.65V220H23.39ZM31.2364 214.495L30.7714 215.995H33.7264L33.2614 214.495C33.0814 213.945 32.9114 213.4 32.7514 212.86C32.5914 212.31 32.4314 211.75 32.2714 211.18H32.2114C32.0614 211.75 31.9064 212.31 31.7464 212.86C31.5864 213.4 31.4164 213.945 31.2364 214.495ZM28.2364 220L31.5664 210.16H32.9764L36.3064 220H34.9714L34.0414 217H30.4564L29.5114 220H28.2364ZM38.4506 220V210.16H39.6956V218.935H44.0006V220H38.4506ZM46.4955 220V210.16H47.7405V215.095H47.7855L51.8805 210.16H53.2905L50.2155 213.91L53.7705 220H52.3755L49.4355 214.885L47.7405 216.88V220H46.4955ZM61.725 220V211.21H58.755V210.16H65.955V211.21H62.985V220H61.725ZM71.7407 220.18C70.9207 220.18 70.1907 219.97 69.5507 219.55C68.9207 219.13 68.4257 218.535 68.0657 217.765C67.7157 216.995 67.5407 216.085 67.5407 215.035C67.5407 213.985 67.7157 213.085 68.0657 212.335C68.4257 211.575 68.9207 210.995 69.5507 210.595C70.1907 210.185 70.9207 209.98 71.7407 209.98C72.5707 209.98 73.3007 210.185 73.9307 210.595C74.5607 210.995 75.0557 211.575 75.4157 212.335C75.7757 213.085 75.9557 213.985 75.9557 215.035C75.9557 216.085 75.7757 216.995 75.4157 217.765C75.0557 218.535 74.5607 219.13 73.9307 219.55C73.3007 219.97 72.5707 220.18 71.7407 220.18ZM71.7407 219.085C72.3307 219.085 72.8407 218.92 73.2707 218.59C73.7107 218.25 74.0507 217.78 74.2907 217.18C74.5307 216.57 74.6507 215.855 74.6507 215.035C74.6507 213.815 74.3857 212.85 73.8557 212.14C73.3257 211.43 72.6207 211.075 71.7407 211.075C70.8607 211.075 70.1557 211.43 69.6257 212.14C69.0957 212.85 68.8307 213.815 68.8307 215.035C68.8307 215.855 68.9507 216.57 69.1907 217.18C69.4307 217.78 69.7707 218.25 70.2107 218.59C70.6507 218.92 71.1607 219.085 71.7407 219.085ZM82.5746 220V210.16H84.0746L85.9646 215.41C86.0846 215.75 86.1996 216.095 86.3096 216.445C86.4296 216.785 86.5496 217.125 86.6696 217.465H86.7296C86.8496 217.125 86.9596 216.785 87.0596 216.445C87.1696 216.095 87.2846 215.75 87.4046 215.41L89.2646 210.16H90.7796V220H89.6096V214.585C89.6096 214.145 89.6296 213.66 89.6696 213.13C89.7096 212.59 89.7446 212.105 89.7746 211.675H89.7146L88.9346 213.91L87.0746 219.01H86.2496L84.3896 213.91L83.6096 211.675H83.5496C83.5796 212.105 83.6096 212.59 83.6396 213.13C83.6796 213.66 83.6996 214.145 83.6996 214.585V220H82.5746ZM94.223 220V210.16H99.893V211.21H95.468V214.3H99.203V215.365H95.468V218.935H100.043V220H94.223ZM106.636 220V210.16H107.926L111.481 216.34L112.546 218.38H112.606C112.576 217.88 112.541 217.365 112.501 216.835C112.471 216.295 112.456 215.765 112.456 215.245V210.16H113.641V220H112.351L108.781 213.805L107.716 211.78H107.656C107.696 212.27 107.731 212.775 107.761 213.295C107.801 213.815 107.821 214.335 107.821 214.855V220H106.636ZM117.098 220V210.16H118.343V220H117.098ZM125.508 220.18C124.688 220.18 123.953 219.98 123.303 219.58C122.663 219.17 122.153 218.585 121.773 217.825C121.403 217.065 121.218 216.15 121.218 215.08C121.218 214.02 121.408 213.11 121.788 212.35C122.168 211.59 122.688 211.005 123.348 210.595C124.008 210.185 124.753 209.98 125.583 209.98C126.183 209.98 126.713 210.105 127.173 210.355C127.633 210.595 128.003 210.875 128.283 211.195L127.608 212.005C127.348 211.725 127.053 211.5 126.723 211.33C126.393 211.16 126.018 211.075 125.598 211.075C124.978 211.075 124.433 211.24 123.963 211.57C123.503 211.89 123.143 212.345 122.883 212.935C122.633 213.525 122.508 214.23 122.508 215.05C122.508 215.87 122.633 216.585 122.883 217.195C123.133 217.795 123.483 218.26 123.933 218.59C124.393 218.92 124.933 219.085 125.553 219.085C126.023 219.085 126.443 218.985 126.813 218.785C127.183 218.585 127.523 218.315 127.833 217.975L128.523 218.755C128.133 219.205 127.693 219.555 127.203 219.805C126.713 220.055 126.148 220.18 125.508 220.18ZM131.108 220V210.16H136.778V211.21H132.353V214.3H136.088V215.365H132.353V218.935H136.928V220H131.108Z" fill="#E5E5E5"/>
<path d="M22.94 239V231.41H20.36V229.25H28.1V231.41H25.52V239H22.94ZM31.7968 239V229.25H34.3768V239H31.7968ZM38.7929 239V229.25H41.4329L43.5929 233.6L44.5229 235.79H44.5829C44.5229 235.26 44.4529 234.66 44.3729 233.99C44.2929 233.31 44.2529 232.67 44.2529 232.07V229.25H46.7129V239H44.0729L41.9129 234.635L40.9829 232.46H40.9229C40.9829 233.01 41.0529 233.62 41.1329 234.29C41.2129 234.95 41.2529 235.58 41.2529 236.18V239H38.7929ZM53.641 234.26L53.476 234.935H55.276L55.111 234.26C54.991 233.79 54.871 233.28 54.751 232.73C54.631 232.18 54.511 231.66 54.391 231.17H54.331C54.231 231.66 54.121 232.18 54.001 232.73C53.881 233.28 53.761 233.79 53.641 234.26ZM49.891 239L52.861 229.25H55.981L58.951 239H56.221L55.741 236.93H53.011L52.531 239H49.891ZM65.2208 239.18C64.6108 239.18 63.9758 239.065 63.3158 238.835C62.6558 238.605 62.0608 238.255 61.5308 237.785L63.0008 236.015C63.3508 236.295 63.7258 236.525 64.1258 236.705C64.5358 236.875 64.9208 236.96 65.2808 236.96C65.6708 236.96 65.9508 236.9 66.1208 236.78C66.3008 236.66 66.3908 236.49 66.3908 236.27C66.3908 236.04 66.2708 235.865 66.0308 235.745C65.8008 235.625 65.4808 235.485 65.0708 235.325L63.8558 234.815C63.3358 234.605 62.8758 234.275 62.4758 233.825C62.0858 233.375 61.8908 232.8 61.8908 232.1C61.8908 231.54 62.0458 231.035 62.3558 230.585C62.6658 230.125 63.0908 229.76 63.6308 229.49C64.1808 229.21 64.8108 229.07 65.5208 229.07C66.0808 229.07 66.6458 229.18 67.2158 229.4C67.7958 229.61 68.3108 229.935 68.7608 230.375L67.4708 231.995C67.1408 231.765 66.8208 231.59 66.5108 231.47C66.2108 231.35 65.8808 231.29 65.5208 231.29C65.2108 231.29 64.9608 231.345 64.7708 231.455C64.5908 231.565 64.5008 231.73 64.5008 231.95C64.5008 232.18 64.6308 232.36 64.8908 232.49C65.1508 232.61 65.5008 232.755 65.9408 232.925L67.1258 233.39C67.7358 233.63 68.2058 233.965 68.5358 234.395C68.8658 234.825 69.0308 235.38 69.0308 236.06C69.0308 236.61 68.8808 237.125 68.5808 237.605C68.2908 238.075 67.8608 238.455 67.2908 238.745C66.7208 239.035 66.0308 239.18 65.2208 239.18ZM72.8476 239V229.25H75.4276V232.88H78.3376V229.25H80.9176V239H78.3376V235.13H75.4276V239H72.8476ZM85.3222 239V229.25H91.6222V231.41H87.9022V232.94H91.0822V235.1H87.9022V236.84H91.7722V239H85.3222Z" fill="#E5E5E5"/>
<path d="M21.35 128V118.16H27.02V119.21H22.595V122.54H26.345V123.59H22.595V128H21.35ZM29.5121 128V118.16H35.1821V119.21H30.7571V122.3H34.4921V123.365H30.7571V126.935H35.3321V128H29.5121ZM38.1723 128V118.16H39.6723L41.5623 123.41C41.6823 123.75 41.7973 124.095 41.9073 124.445C42.0273 124.785 42.1473 125.125 42.2673 125.465H42.3273C42.4473 125.125 42.5573 124.785 42.6573 124.445C42.7673 124.095 42.8823 123.75 43.0023 123.41L44.8623 118.16H46.3773V128H45.2073V122.585C45.2073 122.145 45.2273 121.66 45.2673 121.13C45.3073 120.59 45.3423 120.105 45.3723 119.675H45.3123L44.5323 121.91L42.6723 127.01H41.8473L39.9873 121.91L39.2073 119.675H39.1473C39.1773 120.105 39.2073 120.59 39.2373 121.13C39.2773 121.66 39.2973 122.145 39.2973 122.585V128H38.1723ZM51.5157 122.495L51.0507 123.995H54.0057L53.5407 122.495C53.3607 121.945 53.1907 121.4 53.0307 120.86C52.8707 120.31 52.7107 119.75 52.5507 119.18H52.4907C52.3407 119.75 52.1857 120.31 52.0257 120.86C51.8657 121.4 51.6957 121.945 51.5157 122.495ZM48.5157 128L51.8457 118.16H53.2557L56.5857 128H55.2507L54.3207 125H50.7357L49.7907 128H48.5157ZM58.7299 128V118.16H59.9749V126.935H64.2799V128H58.7299ZM66.7748 128V118.16H72.4448V119.21H68.0198V122.3H71.7548V123.365H68.0198V126.935H72.5948V128H66.7748ZM79.1879 128V118.16H84.8579V119.21H80.4329V122.3H84.1679V123.365H80.4329V126.935H85.0079V128H79.1879ZM87.848 128V118.16H89.138L92.693 124.34L93.758 126.38H93.818C93.788 125.88 93.753 125.365 93.713 124.835C93.683 124.295 93.668 123.765 93.668 123.245V118.16H94.853V128H93.563L89.993 121.805L88.928 119.78H88.868C88.908 120.27 88.943 120.775 88.973 121.295C89.013 121.815 89.033 122.335 89.033 122.855V128H87.848ZM98.31 128V118.16H103.98V119.21H99.555V122.3H103.29V123.365H99.555V126.935H104.13V128H98.31ZM106.97 128V118.16H110.045C110.715 118.16 111.31 118.25 111.83 118.43C112.35 118.6 112.755 118.89 113.045 119.3C113.345 119.7 113.495 120.24 113.495 120.92C113.495 121.68 113.295 122.295 112.895 122.765C112.495 123.225 111.955 123.54 111.275 123.71L113.78 128H112.37L110 123.845H108.215V128H106.97ZM108.215 122.825H109.865C110.635 122.825 111.225 122.67 111.635 122.36C112.045 122.04 112.25 121.56 112.25 120.92C112.25 120.27 112.045 119.815 111.635 119.555C111.225 119.295 110.635 119.165 109.865 119.165H108.215V122.825ZM120.13 128.18C119.27 128.18 118.505 127.98 117.835 127.58C117.165 127.17 116.64 126.585 116.26 125.825C115.88 125.065 115.69 124.15 115.69 123.08C115.69 122.02 115.885 121.11 116.275 120.35C116.665 119.59 117.2 119.005 117.88 118.595C118.56 118.185 119.335 117.98 120.205 117.98C120.885 117.98 121.455 118.11 121.915 118.37C122.385 118.62 122.76 118.895 123.04 119.195L122.35 120.005C122.1 119.745 121.81 119.525 121.48 119.345C121.15 119.165 120.735 119.075 120.235 119.075C119.575 119.075 119 119.24 118.51 119.57C118.02 119.89 117.64 120.345 117.37 120.935C117.11 121.525 116.98 122.23 116.98 123.05C116.98 124.29 117.26 125.275 117.82 126.005C118.39 126.725 119.2 127.085 120.25 127.085C120.6 127.085 120.935 127.035 121.255 126.935C121.575 126.825 121.83 126.68 122.02 126.5V123.935H119.935V122.9H123.16V127.04C122.85 127.37 122.43 127.645 121.9 127.865C121.38 128.075 120.79 128.18 120.13 128.18ZM127.858 128V124.19L124.903 118.16H126.238L127.513 120.935C127.673 121.295 127.828 121.65 127.978 122C128.138 122.35 128.298 122.71 128.458 123.08H128.518C128.688 122.71 128.858 122.35 129.028 122C129.198 121.65 129.358 121.295 129.508 120.935L130.768 118.16H132.073L129.118 124.19V128H127.858ZM137.905 128V118.16H140.71C141.45 118.16 142.095 118.25 142.645 118.43C143.195 118.61 143.625 118.915 143.935 119.345C144.245 119.765 144.4 120.335 144.4 121.055C144.4 122.085 144.065 122.85 143.395 123.35C142.725 123.85 141.85 124.1 140.77 124.1H139.15V128H137.905ZM139.15 123.08H140.62C141.48 123.08 142.115 122.92 142.525 122.6C142.945 122.27 143.155 121.755 143.155 121.055C143.155 120.345 142.935 119.855 142.495 119.585C142.065 119.305 141.42 119.165 140.56 119.165H139.15V123.08ZM148.099 122.495L147.634 123.995H150.589L150.124 122.495C149.944 121.945 149.774 121.4 149.614 120.86C149.454 120.31 149.294 119.75 149.134 119.18H149.074C148.924 119.75 148.769 120.31 148.609 120.86C148.449 121.4 148.279 121.945 148.099 122.495ZM145.099 128L148.429 118.16H149.839L153.169 128H151.834L150.904 125H147.319L146.374 128H145.099ZM155.313 128V118.16H158.388C159.058 118.16 159.653 118.25 160.173 118.43C160.693 118.6 161.098 118.89 161.388 119.3C161.688 119.7 161.838 120.24 161.838 120.92C161.838 121.68 161.638 122.295 161.238 122.765C160.838 123.225 160.298 123.54 159.618 123.71L162.123 128H160.713L158.343 123.845H156.558V128H155.313ZM156.558 122.825H158.208C158.978 122.825 159.568 122.67 159.978 122.36C160.388 122.04 160.593 121.56 160.593 120.92C160.593 120.27 160.388 119.815 159.978 119.555C159.568 119.295 158.978 119.165 158.208 119.165H156.558V122.825ZM166.438 128V119.21H163.468V118.16H170.668V119.21H167.698V128H166.438ZM176.193 128V127.265C177.153 126.305 177.968 125.465 178.638 124.745C179.308 124.015 179.818 123.36 180.168 122.78C180.518 122.19 180.693 121.64 180.693 121.13C180.693 120.58 180.543 120.13 180.243 119.78C179.943 119.43 179.488 119.255 178.878 119.255C178.478 119.255 178.108 119.37 177.768 119.6C177.428 119.82 177.118 120.09 176.838 120.41L176.133 119.705C176.533 119.265 176.958 118.915 177.408 118.655C177.868 118.385 178.408 118.25 179.028 118.25C179.918 118.25 180.618 118.51 181.128 119.03C181.638 119.54 181.893 120.22 181.893 121.07C181.893 121.67 181.723 122.28 181.383 122.9C181.053 123.51 180.593 124.155 180.003 124.835C179.423 125.505 178.753 126.235 177.993 127.025C178.253 127.005 178.523 126.985 178.803 126.965C179.083 126.945 179.348 126.935 179.598 126.935H182.373V128H176.193Z" fill="#E5E5E5"/>
<path d="M21.86 147L20.15 137.25H22.79L23.33 141.51C23.38 142.02 23.435 142.53 23.495 143.04C23.555 143.55 23.61 144.06 23.66 144.57H23.72C23.81 144.06 23.9 143.55 23.99 143.04C24.08 142.52 24.17 142.01 24.26 141.51L25.19 137.25H27.35L28.28 141.51C28.37 142 28.46 142.505 28.55 143.025C28.64 143.535 28.73 144.05 28.82 144.57H28.88C28.93 144.05 28.985 143.535 29.045 143.025C29.105 142.505 29.16 142 29.21 141.51L29.75 137.25H32.21L30.59 147H27.32L26.57 143.13C26.5 142.75 26.435 142.365 26.375 141.975C26.315 141.585 26.26 141.21 26.21 140.85H26.15C26.1 141.21 26.045 141.585 25.985 141.975C25.935 142.365 25.87 142.75 25.79 143.13L25.07 147H21.86ZM35.6933 147V137.25H38.2733V147H35.6933ZM42.6894 147V137.25H45.2694V144.84H48.9594V147H42.6894ZM52.8935 147V137.25H55.4735V144.84H59.1635V147H52.8935ZM66.607 147.18C65.707 147.18 64.917 146.98 64.237 146.58C63.557 146.17 63.027 145.585 62.647 144.825C62.267 144.065 62.077 143.15 62.077 142.08C62.077 141.01 62.267 140.105 62.647 139.365C63.027 138.615 63.557 138.045 64.237 137.655C64.917 137.265 65.707 137.07 66.607 137.07C67.507 137.07 68.297 137.265 68.977 137.655C69.657 138.045 70.187 138.615 70.567 139.365C70.947 140.105 71.137 141.01 71.137 142.08C71.137 143.15 70.947 144.065 70.567 144.825C70.187 145.585 69.657 146.17 68.977 146.58C68.297 146.98 67.507 147.18 66.607 147.18ZM66.607 144.96C67.197 144.96 67.657 144.7 67.987 144.18C68.327 143.66 68.497 142.96 68.497 142.08C68.497 141.19 68.327 140.505 67.987 140.025C67.657 139.535 67.197 139.29 66.607 139.29C66.027 139.29 65.567 139.535 65.227 140.025C64.887 140.505 64.717 141.19 64.717 142.08C64.717 142.96 64.887 143.66 65.227 144.18C65.567 144.7 66.027 144.96 66.607 144.96ZM75.9127 147L74.2027 137.25H76.8427L77.3827 141.51C77.4327 142.02 77.4877 142.53 77.5477 143.04C77.6077 143.55 77.6627 144.06 77.7127 144.57H77.7727C77.8627 144.06 77.9527 143.55 78.0427 143.04C78.1327 142.52 78.2227 142.01 78.3127 141.51L79.2427 137.25H81.4027L82.3327 141.51C82.4227 142 82.5127 142.505 82.6027 143.025C82.6927 143.535 82.7827 144.05 82.8727 144.57H82.9327C82.9827 144.05 83.0377 143.535 83.0977 143.025C83.1577 142.505 83.2127 142 83.2627 141.51L83.8027 137.25H86.2627L84.6427 147H81.3727L80.6227 143.13C80.5527 142.75 80.4877 142.365 80.4277 141.975C80.3677 141.585 80.3127 141.21 80.2627 140.85H80.2027C80.1527 141.21 80.0977 141.585 80.0377 141.975C79.9877 142.365 79.9227 142.75 79.8427 143.13L79.1227 147H75.9127Z" fill="#E5E5E5"/>
<path d="M24.98 82.18C24.16 82.18 23.43 81.97 22.79 81.55C22.16 81.13 21.665 80.535 21.305 79.765C20.955 78.995 20.78 78.085 20.78 77.035C20.78 75.985 20.955 75.085 21.305 74.335C21.665 73.575 22.16 72.995 22.79 72.595C23.43 72.185 24.16 71.98 24.98 71.98C25.81 71.98 26.54 72.185 27.17 72.595C27.8 72.995 28.295 73.575 28.655 74.335C29.015 75.085 29.195 75.985 29.195 77.035C29.195 78.085 29.015 78.995 28.655 79.765C28.295 80.535 27.8 81.13 27.17 81.55C26.54 81.97 25.81 82.18 24.98 82.18ZM24.98 81.085C25.57 81.085 26.08 80.92 26.51 80.59C26.95 80.25 27.29 79.78 27.53 79.18C27.77 78.57 27.89 77.855 27.89 77.035C27.89 75.815 27.625 74.85 27.095 74.14C26.565 73.43 25.86 73.075 24.98 73.075C24.1 73.075 23.395 73.43 22.865 74.14C22.335 74.85 22.07 75.815 22.07 77.035C22.07 77.855 22.19 78.57 22.43 79.18C22.67 79.78 23.01 80.25 23.45 80.59C23.89 80.92 24.4 81.085 24.98 81.085ZM32.0609 82V72.16H33.3059V76.285H37.8809V72.16H39.1409V82H37.8809V77.365H33.3059V82H32.0609ZM46.349 82V72.16H47.849L49.739 77.41C49.859 77.75 49.974 78.095 50.084 78.445C50.204 78.785 50.324 79.125 50.444 79.465H50.504C50.624 79.125 50.734 78.785 50.834 78.445C50.944 78.095 51.059 77.75 51.179 77.41L53.039 72.16H54.554V82H53.384V76.585C53.384 76.145 53.404 75.66 53.444 75.13C53.484 74.59 53.519 74.105 53.549 73.675H53.489L52.709 75.91L50.849 81.01H50.024L48.164 75.91L47.384 73.675H47.324C47.354 74.105 47.384 74.59 47.414 75.13C47.454 75.66 47.474 76.145 47.474 76.585V82H46.349ZM59.5875 82V78.19L56.6325 72.16H57.9675L59.2425 74.935C59.4025 75.295 59.5575 75.65 59.7075 76C59.8675 76.35 60.0275 76.71 60.1875 77.08H60.2475C60.4175 76.71 60.5875 76.35 60.7575 76C60.9275 75.65 61.0875 75.295 61.2375 74.935L62.4975 72.16H63.8025L60.8475 78.19V82H59.5875ZM69.6342 82V72.16H70.8792V80.935H75.1842V82H69.6342ZM80.9136 82.18C80.0936 82.18 79.3636 81.97 78.7236 81.55C78.0936 81.13 77.5986 80.535 77.2386 79.765C76.8886 78.995 76.7136 78.085 76.7136 77.035C76.7136 75.985 76.8886 75.085 77.2386 74.335C77.5986 73.575 78.0936 72.995 78.7236 72.595C79.3636 72.185 80.0936 71.98 80.9136 71.98C81.7436 71.98 82.4736 72.185 83.1036 72.595C83.7336 72.995 84.2286 73.575 84.5886 74.335C84.9486 75.085 85.1286 75.985 85.1286 77.035C85.1286 78.085 84.9486 78.995 84.5886 79.765C84.2286 80.535 83.7336 81.13 83.1036 81.55C82.4736 81.97 81.7436 82.18 80.9136 82.18ZM80.9136 81.085C81.5036 81.085 82.0136 80.92 82.4436 80.59C82.8836 80.25 83.2236 79.78 83.4636 79.18C83.7036 78.57 83.8236 77.855 83.8236 77.035C83.8236 75.815 83.5586 74.85 83.0286 74.14C82.4986 73.43 81.7936 73.075 80.9136 73.075C80.0336 73.075 79.3286 73.43 78.7986 74.14C78.2686 74.85 78.0036 75.815 78.0036 77.035C78.0036 77.855 78.1236 78.57 78.3636 79.18C78.6036 79.78 78.9436 80.25 79.3836 80.59C79.8236 80.92 80.3336 81.085 80.9136 81.085ZM89.648 82L86.498 72.16H87.833L89.408 77.47C89.588 78.05 89.743 78.595 89.873 79.105C90.013 79.605 90.178 80.145 90.368 80.725H90.428C90.608 80.145 90.768 79.605 90.908 79.105C91.048 78.595 91.203 78.05 91.373 77.47L92.948 72.16H94.223L91.103 82H89.648ZM96.3178 82V72.16H101.988V73.21H97.5628V76.3H101.298V77.365H97.5628V80.935H102.138V82H96.3178Z" fill="#E5E5E5"/>
<path d="M21.08 101V91.25H27.44V93.41H23.66V95.27H26.9V97.43H23.66V101H21.08ZM31.372 101V91.25H33.952V94.88H34.012L36.472 91.25H39.292L36.382 95.21L39.862 101H37.042L34.882 97.25L33.952 98.57V101H31.372ZM45.4145 96.26L45.2495 96.935H47.0495L46.8845 96.26C46.7645 95.79 46.6445 95.28 46.5245 94.73C46.4045 94.18 46.2845 93.66 46.1645 93.17H46.1045C46.0045 93.66 45.8945 94.18 45.7745 94.73C45.6545 95.28 45.5345 95.79 45.4145 96.26ZM41.6645 101L44.6345 91.25H47.7545L50.7245 101H47.9945L47.5145 98.93H44.7845L44.3045 101H41.6645ZM61.0171 101V93.41H58.4371V91.25H66.1771V93.41H63.5971V101H61.0171ZM70.6539 101L68.9439 91.25H71.5839L72.1239 95.51C72.1739 96.02 72.2289 96.53 72.2889 97.04C72.3489 97.55 72.4039 98.06 72.4539 98.57H72.5139C72.6039 98.06 72.6939 97.55 72.7839 97.04C72.8739 96.52 72.9639 96.01 73.0539 95.51L73.9839 91.25H76.1439L77.0739 95.51C77.1639 96 77.2539 96.505 77.3439 97.025C77.4339 97.535 77.5239 98.05 77.6139 98.57H77.6739C77.7239 98.05 77.7789 97.535 77.8389 97.025C77.8989 96.505 77.9539 96 78.0039 95.51L78.5439 91.25H81.0039L79.3839 101H76.1139L75.3639 97.13C75.2939 96.75 75.2289 96.365 75.1689 95.975C75.1089 95.585 75.0539 95.21 75.0039 94.85H74.9439C74.8939 95.21 74.8389 95.585 74.7789 95.975C74.7289 96.365 74.6639 96.75 74.5839 97.13L73.8639 101H70.6539ZM84.4872 101V91.25H87.0672V101H84.4872ZM95.9833 101.18C95.0733 101.18 94.2433 101 93.4933 100.64C92.7533 100.27 92.1633 99.715 91.7233 98.975C91.2833 98.235 91.0633 97.31 91.0633 96.2C91.0633 95.38 91.1933 94.655 91.4533 94.025C91.7133 93.385 92.0683 92.845 92.5183 92.405C92.9683 91.965 93.4833 91.635 94.0633 91.415C94.6533 91.185 95.2733 91.07 95.9233 91.07C96.6433 91.07 97.2683 91.2 97.7983 91.46C98.3283 91.71 98.7633 92.01 99.1033 92.36L97.7533 94.01C97.5133 93.8 97.2583 93.63 96.9883 93.5C96.7283 93.36 96.4033 93.29 96.0133 93.29C95.3533 93.29 94.8033 93.54 94.3633 94.04C93.9233 94.53 93.7033 95.22 93.7033 96.11C93.7033 97.02 93.9083 97.725 94.3183 98.225C94.7383 98.715 95.3833 98.96 96.2533 98.96C96.3933 98.96 96.5283 98.945 96.6583 98.915C96.7983 98.885 96.9133 98.84 97.0033 98.78V97.43H95.5633V95.33H99.2833V99.98C98.9433 100.31 98.4783 100.595 97.8883 100.835C97.3083 101.065 96.6733 101.18 95.9833 101.18ZM106.521 101.18C105.911 101.18 105.276 101.065 104.616 100.835C103.956 100.605 103.361 100.255 102.831 99.785L104.301 98.015C104.651 98.295 105.026 98.525 105.426 98.705C105.836 98.875 106.221 98.96 106.581 98.96C106.971 98.96 107.251 98.9 107.421 98.78C107.601 98.66 107.691 98.49 107.691 98.27C107.691 98.04 107.571 97.865 107.331 97.745C107.101 97.625 106.781 97.485 106.371 97.325L105.156 96.815C104.636 96.605 104.176 96.275 103.776 95.825C103.386 95.375 103.191 94.8 103.191 94.1C103.191 93.54 103.346 93.035 103.656 92.585C103.966 92.125 104.391 91.76 104.931 91.49C105.481 91.21 106.111 91.07 106.821 91.07C107.381 91.07 107.946 91.18 108.516 91.4C109.096 91.61 109.611 91.935 110.061 92.375L108.771 93.995C108.441 93.765 108.121 93.59 107.811 93.47C107.511 93.35 107.181 93.29 106.821 93.29C106.511 93.29 106.261 93.345 106.071 93.455C105.891 93.565 105.801 93.73 105.801 93.95C105.801 94.18 105.931 94.36 106.191 94.49C106.451 94.61 106.801 94.755 107.241 94.925L108.426 95.39C109.036 95.63 109.506 95.965 109.836 96.395C110.166 96.825 110.331 97.38 110.331 98.06C110.331 98.61 110.181 99.125 109.881 99.605C109.591 100.075 109.161 100.455 108.591 100.745C108.021 101.035 107.331 101.18 106.521 101.18Z" fill="#E5E5E5"/>
<path d="M21.35 36V26.16H24.275C24.945 26.16 25.53 26.24 26.03 26.4C26.54 26.56 26.935 26.815 27.215 27.165C27.505 27.515 27.65 27.98 27.65 28.56C27.65 29.05 27.525 29.495 27.275 29.895C27.035 30.285 26.68 30.555 26.21 30.705V30.765C26.8 30.875 27.28 31.125 27.65 31.515C28.03 31.905 28.22 32.44 28.22 33.12C28.22 33.76 28.06 34.295 27.74 34.725C27.43 35.155 26.995 35.475 26.435 35.685C25.875 35.895 25.225 36 24.485 36H21.35ZM22.595 30.345H24.05C24.89 30.345 25.495 30.2 25.865 29.91C26.235 29.62 26.42 29.225 26.42 28.725C26.42 28.155 26.225 27.75 25.835 27.51C25.455 27.27 24.88 27.15 24.11 27.15H22.595V30.345ZM22.595 35.01H24.305C25.155 35.01 25.815 34.855 26.285 34.545C26.755 34.225 26.99 33.735 26.99 33.075C26.99 32.465 26.755 32.02 26.285 31.74C25.825 31.45 25.165 31.305 24.305 31.305H22.595V35.01ZM30.9184 36V26.16H32.1634V34.935H36.4684V36H30.9184ZM40.7022 30.495L40.2372 31.995H43.1922L42.7272 30.495C42.5472 29.945 42.3772 29.4 42.2172 28.86C42.0572 28.31 41.8972 27.75 41.7372 27.18H41.6772C41.5272 27.75 41.3722 28.31 41.2122 28.86C41.0522 29.4 40.8822 29.945 40.7022 30.495ZM37.7022 36L41.0322 26.16H42.4422L45.7722 36H44.4372L43.5072 33H39.9222L38.9772 36H37.7022ZM51.4899 36.18C50.6699 36.18 49.9349 35.98 49.2849 35.58C48.6449 35.17 48.1349 34.585 47.7549 33.825C47.3849 33.065 47.1999 32.15 47.1999 31.08C47.1999 30.02 47.3899 29.11 47.7699 28.35C48.1499 27.59 48.6699 27.005 49.3299 26.595C49.9899 26.185 50.7349 25.98 51.5649 25.98C52.1649 25.98 52.6949 26.105 53.1549 26.355C53.6149 26.595 53.9849 26.875 54.2649 27.195L53.5899 28.005C53.3299 27.725 53.0349 27.5 52.7049 27.33C52.3749 27.16 51.9999 27.075 51.5799 27.075C50.9599 27.075 50.4149 27.24 49.9449 27.57C49.4849 27.89 49.1249 28.345 48.8649 28.935C48.6149 29.525 48.4899 30.23 48.4899 31.05C48.4899 31.87 48.6149 32.585 48.8649 33.195C49.1149 33.795 49.4649 34.26 49.9149 34.59C50.3749 34.92 50.9149 35.085 51.5349 35.085C52.0049 35.085 52.4249 34.985 52.7949 34.785C53.1649 34.585 53.5049 34.315 53.8149 33.975L54.5049 34.755C54.1149 35.205 53.6749 35.555 53.1849 35.805C52.6949 36.055 52.1299 36.18 51.4899 36.18ZM57.0893 36V26.16H58.3343V31.095H58.3793L62.4743 26.16H63.8843L60.8093 29.91L64.3643 36H62.9693L60.0293 30.885L58.3343 32.88V36H57.0893ZM73.0087 36.18C72.3187 36.18 71.6787 36.05 71.0887 35.79C70.4987 35.52 69.9887 35.165 69.5587 34.725L70.3087 33.855C70.6587 34.225 71.0687 34.525 71.5387 34.755C72.0187 34.975 72.5137 35.085 73.0237 35.085C73.6737 35.085 74.1787 34.94 74.5387 34.65C74.8987 34.35 75.0787 33.96 75.0787 33.48C75.0787 33.14 75.0037 32.87 74.8537 32.67C74.7137 32.47 74.5187 32.3 74.2687 32.16C74.0287 32.02 73.7537 31.88 73.4437 31.74L72.0337 31.125C71.7237 30.995 71.4137 30.825 71.1037 30.615C70.8037 30.405 70.5487 30.135 70.3387 29.805C70.1387 29.475 70.0387 29.07 70.0387 28.59C70.0387 28.09 70.1687 27.645 70.4287 27.255C70.6987 26.855 71.0687 26.545 71.5387 26.325C72.0087 26.095 72.5387 25.98 73.1287 25.98C73.7187 25.98 74.2637 26.095 74.7637 26.325C75.2637 26.545 75.6887 26.835 76.0387 27.195L75.3637 28.005C75.0637 27.715 74.7287 27.49 74.3587 27.33C73.9987 27.16 73.5887 27.075 73.1287 27.075C72.5787 27.075 72.1337 27.205 71.7937 27.465C71.4637 27.725 71.2987 28.075 71.2987 28.515C71.2987 28.825 71.3787 29.085 71.5387 29.295C71.7087 29.495 71.9187 29.66 72.1687 29.79C72.4187 29.92 72.6737 30.04 72.9337 30.15L74.3287 30.75C74.7087 30.91 75.0487 31.105 75.3487 31.335C75.6587 31.555 75.9037 31.83 76.0837 32.16C76.2637 32.48 76.3537 32.885 76.3537 33.375C76.3537 33.895 76.2187 34.37 75.9487 34.8C75.6787 35.22 75.2937 35.555 74.7937 35.805C74.2937 36.055 73.6987 36.18 73.0087 36.18ZM82.5364 36.18C81.8664 36.18 81.2614 36.045 80.7214 35.775C80.1914 35.505 79.7714 35.06 79.4614 34.44C79.1514 33.82 78.9964 32.985 78.9964 31.935V26.16H80.2414V31.965C80.2414 32.755 80.3414 33.38 80.5414 33.84C80.7514 34.29 81.0264 34.61 81.3664 34.8C81.7164 34.99 82.1064 35.085 82.5364 35.085C82.9764 35.085 83.3714 34.99 83.7214 34.8C84.0714 34.61 84.3464 34.29 84.5464 33.84C84.7564 33.38 84.8614 32.755 84.8614 31.965V26.16H86.0614V31.935C86.0614 32.985 85.9064 33.82 85.5964 34.44C85.2864 35.06 84.8664 35.505 84.3364 35.775C83.8064 36.045 83.2064 36.18 82.5364 36.18ZM93.3294 36.18C92.4694 36.18 91.7044 35.98 91.0344 35.58C90.3644 35.17 89.8394 34.585 89.4594 33.825C89.0794 33.065 88.8894 32.15 88.8894 31.08C88.8894 30.02 89.0844 29.11 89.4744 28.35C89.8644 27.59 90.3994 27.005 91.0794 26.595C91.7594 26.185 92.5344 25.98 93.4044 25.98C94.0844 25.98 94.6544 26.11 95.1144 26.37C95.5844 26.62 95.9594 26.895 96.2394 27.195L95.5494 28.005C95.2994 27.745 95.0094 27.525 94.6794 27.345C94.3494 27.165 93.9344 27.075 93.4344 27.075C92.7744 27.075 92.1994 27.24 91.7094 27.57C91.2194 27.89 90.8394 28.345 90.5694 28.935C90.3094 29.525 90.1794 30.23 90.1794 31.05C90.1794 32.29 90.4594 33.275 91.0194 34.005C91.5894 34.725 92.3994 35.085 93.4494 35.085C93.7994 35.085 94.1344 35.035 94.4544 34.935C94.7744 34.825 95.0294 34.68 95.2194 34.5V31.935H93.1344V30.9H96.3594V35.04C96.0494 35.37 95.6294 35.645 95.0994 35.865C94.5794 36.075 93.9894 36.18 93.3294 36.18ZM101.104 30.495L100.639 31.995H103.594L103.129 30.495C102.949 29.945 102.779 29.4 102.619 28.86C102.459 28.31 102.299 27.75 102.139 27.18H102.079C101.929 27.75 101.774 28.31 101.614 28.86C101.454 29.4 101.284 29.945 101.104 30.495ZM98.1036 36L101.434 26.16H102.844L106.174 36H104.839L103.909 33H100.324L99.3786 36H98.1036ZM108.318 36V26.16H111.393C112.063 26.16 112.658 26.25 113.178 26.43C113.698 26.6 114.103 26.89 114.393 27.3C114.693 27.7 114.843 28.24 114.843 28.92C114.843 29.68 114.643 30.295 114.243 30.765C113.843 31.225 113.303 31.54 112.623 31.71L115.128 36H113.718L111.348 31.845H109.563V36H108.318ZM109.563 30.825H111.213C111.983 30.825 112.573 30.67 112.983 30.36C113.393 30.04 113.598 29.56 113.598 28.92C113.598 28.27 113.393 27.815 112.983 27.555C112.573 27.295 111.983 27.165 111.213 27.165H109.563V30.825ZM121.361 36V26.16H124.286C124.956 26.16 125.541 26.24 126.041 26.4C126.551 26.56 126.946 26.815 127.226 27.165C127.516 27.515 127.661 27.98 127.661 28.56C127.661 29.05 127.536 29.495 127.286 29.895C127.046 30.285 126.691 30.555 126.221 30.705V30.765C126.811 30.875 127.291 31.125 127.661 31.515C128.041 31.905 128.231 32.44 128.231 33.12C128.231 33.76 128.071 34.295 127.751 34.725C127.441 35.155 127.006 35.475 126.446 35.685C125.886 35.895 125.236 36 124.496 36H121.361ZM122.606 30.345H124.061C124.901 30.345 125.506 30.2 125.876 29.91C126.246 29.62 126.431 29.225 126.431 28.725C126.431 28.155 126.236 27.75 125.846 27.51C125.466 27.27 124.891 27.15 124.121 27.15H122.606V30.345ZM122.606 35.01H124.316C125.166 35.01 125.826 34.855 126.296 34.545C126.766 34.225 127.001 33.735 127.001 33.075C127.001 32.465 126.766 32.02 126.296 31.74C125.836 31.45 125.176 31.305 124.316 31.305H122.606V35.01ZM130.929 36V26.16H136.599V27.21H132.174V30.3H135.909V31.365H132.174V34.935H136.749V36H130.929ZM141.284 30.495L140.819 31.995H143.774L143.309 30.495C143.129 29.945 142.959 29.4 142.799 28.86C142.639 28.31 142.479 27.75 142.319 27.18H142.259C142.109 27.75 141.954 28.31 141.794 28.86C141.634 29.4 141.464 29.945 141.284 30.495ZM138.284 36L141.614 26.16H143.024L146.354 36H145.019L144.089 33H140.504L139.559 36H138.284ZM152.072 36.18C151.252 36.18 150.517 35.98 149.867 35.58C149.227 35.17 148.717 34.585 148.337 33.825C147.967 33.065 147.782 32.15 147.782 31.08C147.782 30.02 147.972 29.11 148.352 28.35C148.732 27.59 149.252 27.005 149.912 26.595C150.572 26.185 151.317 25.98 152.147 25.98C152.747 25.98 153.277 26.105 153.737 26.355C154.197 26.595 154.567 26.875 154.847 27.195L154.172 28.005C153.912 27.725 153.617 27.5 153.287 27.33C152.957 27.16 152.582 27.075 152.162 27.075C151.542 27.075 150.997 27.24 150.527 27.57C150.067 27.89 149.707 28.345 149.447 28.935C149.197 29.525 149.072 30.23 149.072 31.05C149.072 31.87 149.197 32.585 149.447 33.195C149.697 33.795 150.047 34.26 150.497 34.59C150.957 34.92 151.497 35.085 152.117 35.085C152.587 35.085 153.007 34.985 153.377 34.785C153.747 34.585 154.087 34.315 154.397 33.975L155.087 34.755C154.697 35.205 154.257 35.555 153.767 35.805C153.277 36.055 152.712 36.18 152.072 36.18ZM157.671 36V26.16H158.916V30.285H163.491V26.16H164.751V36H163.491V31.365H158.916V36H157.671Z" fill="#E5E5E5"/>
<path d="M23.48 55.18C22.69 55.18 22.025 55.03 21.485 54.73C20.955 54.42 20.51 53.955 20.15 53.335L21.89 52.03C22.06 52.34 22.255 52.575 22.475 52.735C22.695 52.885 22.91 52.96 23.12 52.96C23.47 52.96 23.735 52.855 23.915 52.645C24.105 52.425 24.2 52.01 24.2 51.4V45.25H26.78V51.61C26.78 52.26 26.66 52.855 26.42 53.395C26.19 53.935 25.83 54.37 25.34 54.7C24.85 55.02 24.23 55.18 23.48 55.18ZM33.643 50.26L33.478 50.935H35.278L35.113 50.26C34.993 49.79 34.873 49.28 34.753 48.73C34.633 48.18 34.513 47.66 34.393 47.17H34.333C34.233 47.66 34.123 48.18 34.003 48.73C33.883 49.28 33.763 49.79 33.643 50.26ZM29.893 55L32.863 45.25H35.983L38.953 55H36.223L35.743 52.93H33.013L32.533 55H29.893ZM42.1327 55V45.25H44.7727L46.9327 49.6L47.8627 51.79H47.9227C47.8627 51.26 47.7927 50.66 47.7127 49.99C47.6327 49.31 47.5927 48.67 47.5927 48.07V45.25H50.0527V55H47.4127L45.2527 50.635L44.3227 48.46H44.2627C44.3227 49.01 44.3927 49.62 44.4727 50.29C44.5527 50.95 44.5927 51.58 44.5927 52.18V55H42.1327ZM54.4609 55V45.25H60.7609V47.41H57.0409V48.94H60.2209V51.1H57.0409V52.84H60.9109V55H54.4609ZM65.0458 55V45.25H67.6258V52.84H71.3158V55H65.0458ZM75.2499 55V45.25H77.8299V52.84H81.5199V55H75.2499ZM85.454 55V45.25H91.754V47.41H88.034V48.94H91.214V51.1H88.034V52.84H91.904V55H85.454ZM101.292 55V45.25H104.052L105.522 49.24C105.612 49.51 105.697 49.79 105.777 50.08C105.857 50.37 105.942 50.66 106.032 50.95H106.092C106.182 50.66 106.267 50.37 106.347 50.08C106.427 49.79 106.512 49.51 106.602 49.24L108.012 45.25H110.772V55H108.432V52.12C108.432 51.79 108.452 51.42 108.492 51.01C108.532 50.59 108.577 50.17 108.627 49.75C108.677 49.33 108.722 48.96 108.762 48.64H108.702L107.892 50.98L106.692 54.205H105.312L104.112 50.98L103.332 48.64H103.272C103.312 48.96 103.357 49.33 103.407 49.75C103.457 50.17 103.502 50.59 103.542 51.01C103.582 51.42 103.602 51.79 103.602 52.12V55H101.292ZM119.297 55.18C118.397 55.18 117.607 54.98 116.927 54.58C116.247 54.17 115.717 53.585 115.337 52.825C114.957 52.065 114.767 51.15 114.767 50.08C114.767 49.01 114.957 48.105 115.337 47.365C115.717 46.615 116.247 46.045 116.927 45.655C117.607 45.265 118.397 45.07 119.297 45.07C120.197 45.07 120.987 45.265 121.667 45.655C122.347 46.045 122.877 46.615 123.257 47.365C123.637 48.105 123.827 49.01 123.827 50.08C123.827 51.15 123.637 52.065 123.257 52.825C122.877 53.585 122.347 54.17 121.667 54.58C120.987 54.98 120.197 55.18 119.297 55.18ZM119.297 52.96C119.887 52.96 120.347 52.7 120.677 52.18C121.017 51.66 121.187 50.96 121.187 50.08C121.187 49.19 121.017 48.505 120.677 48.025C120.347 47.535 119.887 47.29 119.297 47.29C118.717 47.29 118.257 47.535 117.917 48.025C117.577 48.505 117.407 49.19 117.407 50.08C117.407 50.96 117.577 51.66 117.917 52.18C118.257 52.7 118.717 52.96 119.297 52.96ZM127.823 55V45.25H130.463L132.623 49.6L133.553 51.79H133.613C133.553 51.26 133.483 50.66 133.403 49.99C133.323 49.31 133.283 48.67 133.283 48.07V45.25H135.743V55H133.103L130.943 50.635L130.013 48.46H129.953C130.013 49.01 130.083 49.62 130.163 50.29C130.243 50.95 130.283 51.58 130.283 52.18V55H127.823ZM142.671 50.26L142.506 50.935H144.306L144.141 50.26C144.021 49.79 143.901 49.28 143.781 48.73C143.661 48.18 143.541 47.66 143.421 47.17H143.361C143.261 47.66 143.151 48.18 143.031 48.73C142.911 49.28 142.791 49.79 142.671 50.26ZM138.921 55L141.891 45.25H145.011L147.981 55H145.251L144.771 52.93H142.041L141.561 55H138.921ZM151.161 55V45.25H157.461V47.41H153.741V48.94H156.921V51.1H153.741V52.84H157.611V55H151.161Z" fill="#E5E5E5"/>
<rect x="150" y="264" width="270" height="120" transform="rotate(-90 150 264)" fill="url(#paint0_linear_211_1664)"/>
<rect x="196" y="181" width="87" height="89" rx="4" fill="#F9C22E"/>
<path d="M235.453 226.905L237.773 229.483C238.342 230.115 239.153 230.476 240.003 230.476H247" stroke="white" stroke-width="2" stroke-miterlimit="10"/>
<path d="M222 218.571H226.616C227.467 218.571 228.277 218.932 228.846 219.564L231.167 222.143" stroke="white" stroke-width="2" stroke-miterlimit="10"/>
<path d="M222 230.476H226.616C227.467 230.476 228.277 230.115 228.846 229.483L237.773 219.564C238.342 218.932 239.152 218.571 240.003 218.571H247" stroke="white" stroke-width="2" stroke-miterlimit="10"/>
<path d="M244.429 226.905L245.879 228.355C247.05 229.526 247.05 231.426 245.879 232.598L244.429 234.048" stroke="white" stroke-width="2" stroke-miterlimit="10" stroke-linecap="square"/>
<path d="M244.429 222.143L245.879 220.693C247.05 219.521 247.05 217.622 245.879 216.45L244.429 215" stroke="white" stroke-width="2" stroke-miterlimit="10" stroke-linecap="square"/>
<rect x="196" y="87" width="87" height="88" rx="4" fill="#53B3CB"/>
<rect x="196" y="-6" width="87" height="88" rx="4" fill="#F15946"/>
<path d="M234.667 132L237.545 129.121C238.717 127.95 238.717 126.05 237.545 124.879L234.667 122" stroke="white" stroke-width="2" stroke-miterlimit="10" stroke-linecap="round" stroke-linejoin="round"/>
<path d="M237.667 127H224C222.343 127 221 128.343 221 130V139C221 140.657 222.343 142 224 142H224.333" stroke="white" stroke-width="2" stroke-miterlimit="10" stroke-linecap="round" stroke-linejoin="round"/>
<path d="M232.333 137L229.455 139.879C228.283 141.05 228.283 142.95 229.455 144.121L232.333 147" stroke="white" stroke-width="2" stroke-miterlimit="10" stroke-linecap="round" stroke-linejoin="round"/>
<path d="M229.333 142H243C244.657 142 246 140.657 246 139V130C246 128.343 244.657 127 243 127H242.667" stroke="white" stroke-width="2" stroke-miterlimit="10" stroke-linecap="round" stroke-linejoin="round"/>
<path d="M222 41.0908H247" stroke="white" stroke-width="3" stroke-linecap="round" stroke-linejoin="round"/>
<path d="M229.091 50.1818L222.121 43.2122C220.95 42.0407 220.95 40.1412 222.121 38.9696L229.091 32" stroke="white" stroke-width="3" stroke-linecap="round" stroke-linejoin="round"/>
</g>
<rect x="0.5" y="0.5" width="269" height="269" rx="25.5" stroke="white"/>
<defs>
<linearGradient id="paint0_linear_211_1664" x1="285" y1="264" x2="285" y2="384" gradientUnits="userSpaceOnUse">
<stop stop-color="#181E2E" stop-opacity="0"/>
<stop offset="0.447514"/>
</linearGradient>
<clipPath id="clip0_211_1664">
<rect width="270" height="270" rx="26" fill="white"/>
</clipPath>
</defs>
</svg>
